M48
; DRILL file {KiCad (5.1.2-1)-1} date Sunday, May 19, 2019 at 04:00:08 PM
; FORMAT={-:-/ absolute / inch / decimal}
; #@! TF.CreationDate,2019-05-19T16:00:08-07:00
; #@! TF.GenerationSoftware,Kicad,Pcbnew,(5.1.2-1)-1
; #@! TF.FileFunction,Plated,1,2,PTH
FMAT,2
INCH
T1C0.0276
T2C0.0299
T3C0.0354
T4C0.0583
%
G90
G05
T1
X3.31Y-3.04
X3.31Y-3.24
X7.22Y-3.05
X7.22Y-3.25
X9.3Y-3.04
X9.3Y-3.24
X1.36Y-3.04
X1.36Y-3.24
X5.26Y-3.04
X5.26Y-3.24
X11.295Y-3.04
X11.295Y-3.24
T2
X5.785Y-3.23
X5.835Y-3.13
X5.885Y-3.23
X5.935Y-3.13
X5.985Y-3.23
X6.035Y-3.13
X6.085Y-3.23
X6.135Y-3.13
T3
X2.96Y-3.14
X2.96Y-3.24
X0.96Y-3.14
X0.96Y-3.24
X4.955Y-3.14
X4.955Y-3.24
X6.96Y-3.14
X6.96Y-3.24
X8.96Y-3.14
X8.96Y-3.24
X10.965Y-3.14
X10.965Y-3.24
T4
X2.7513Y-3.651
X2.7513Y-3.84
X2.7513Y-4.029
X2.96Y-3.651
X2.96Y-3.84
X2.96Y-4.029
X3.1687Y-3.651
X3.1687Y-3.84
X3.1687Y-4.029
X4.7513Y-3.651
X4.7513Y-3.84
X4.7513Y-4.029
X4.96Y-3.651
X4.96Y-3.84
X4.96Y-4.029
X5.1687Y-3.651
X5.1687Y-3.84
X5.1687Y-4.029
X0.7513Y-3.651
X0.7513Y-3.84
X0.7513Y-4.029
X0.96Y-3.651
X0.96Y-3.84
X0.96Y-4.029
X1.1687Y-3.651
X1.1687Y-3.84
X1.1687Y-4.029
X8.7513Y-3.651
X8.7513Y-3.84
X8.7513Y-4.029
X8.96Y-3.651
X8.96Y-3.84
X8.96Y-4.029
X9.1687Y-3.651
X9.1687Y-3.84
X9.1687Y-4.029
X10.7513Y-3.651
X10.7513Y-3.84
X10.7513Y-4.029
X10.96Y-3.651
X10.96Y-3.84
X10.96Y-4.029
X11.1687Y-3.651
X11.1687Y-3.84
X11.1687Y-4.029
X6.7513Y-3.651
X6.7513Y-3.84
X6.7513Y-4.029
X6.96Y-3.651
X6.96Y-3.84
X6.96Y-4.029
X7.1687Y-3.651
X7.1687Y-3.84
X7.1687Y-4.029
T0
M30
