G04 #@! TF.GenerationSoftware,KiCad,Pcbnew,(5.1.2-1)-1*
G04 #@! TF.CreationDate,2019-05-19T16:00:05-07:00*
G04 #@! TF.ProjectId,PedalBoard,50656461-6c42-46f6-9172-642e6b696361,rev?*
G04 #@! TF.SameCoordinates,Original*
G04 #@! TF.FileFunction,Copper,L1,Top*
G04 #@! TF.FilePolarity,Positive*
%FSLAX46Y46*%
G04 Gerber Fmt 4.6, Leading zero omitted, Abs format (unit mm)*
G04 Created by KiCad (PCBNEW (5.1.2-1)-1) date 2019-05-19 16:00:05*
%MOMM*%
%LPD*%
G04 APERTURE LIST*
%ADD10C,1.800000*%
%ADD11R,1.800000X1.800000*%
%ADD12C,2.220000*%
%ADD13O,1.400000X1.400000*%
%ADD14C,1.400000*%
%ADD15C,1.500000*%
%ADD16R,1.500000X1.500000*%
%ADD17C,0.508000*%
G04 APERTURE END LIST*
D10*
X278511000Y-79756000D03*
D11*
X278511000Y-82296000D03*
D10*
X227584000Y-79756000D03*
D11*
X227584000Y-82296000D03*
D10*
X176784000Y-79756000D03*
D11*
X176784000Y-82296000D03*
D10*
X125857000Y-79756000D03*
D11*
X125857000Y-82296000D03*
D10*
X75184000Y-79756000D03*
D11*
X75184000Y-82296000D03*
D10*
X24384000Y-79756000D03*
D11*
X24384000Y-82296000D03*
D12*
X273084000Y-92736000D03*
X273084000Y-97536000D03*
X273084000Y-102336000D03*
X278384000Y-92736000D03*
X278384000Y-97536000D03*
X278384000Y-102336000D03*
X283684000Y-92736000D03*
X283684000Y-97536000D03*
X283684000Y-102336000D03*
X222284000Y-92736000D03*
X222284000Y-97536000D03*
X222284000Y-102336000D03*
X227584000Y-92736000D03*
X227584000Y-97536000D03*
X227584000Y-102336000D03*
X232884000Y-92736000D03*
X232884000Y-97536000D03*
X232884000Y-102336000D03*
X171484000Y-92736000D03*
X171484000Y-97536000D03*
X171484000Y-102336000D03*
X176784000Y-92736000D03*
X176784000Y-97536000D03*
X176784000Y-102336000D03*
X182084000Y-92736000D03*
X182084000Y-97536000D03*
X182084000Y-102336000D03*
X120684000Y-92736000D03*
X120684000Y-97536000D03*
X120684000Y-102336000D03*
X125984000Y-92736000D03*
X125984000Y-97536000D03*
X125984000Y-102336000D03*
X131284000Y-92736000D03*
X131284000Y-97536000D03*
X131284000Y-102336000D03*
X69884000Y-92736000D03*
X69884000Y-97536000D03*
X69884000Y-102336000D03*
X75184000Y-92736000D03*
X75184000Y-97536000D03*
X75184000Y-102336000D03*
X80484000Y-92736000D03*
X80484000Y-97536000D03*
X80484000Y-102336000D03*
X19084000Y-92736000D03*
X19084000Y-97536000D03*
X19084000Y-102336000D03*
X24384000Y-92736000D03*
X24384000Y-97536000D03*
X24384000Y-102336000D03*
X29684000Y-92736000D03*
X29684000Y-97536000D03*
X29684000Y-102336000D03*
D13*
X286893000Y-77216000D03*
D14*
X286893000Y-82296000D03*
D13*
X236220000Y-77216000D03*
D14*
X236220000Y-82296000D03*
D13*
X183388000Y-77470000D03*
D14*
X183388000Y-82550000D03*
D13*
X133604000Y-77216000D03*
D14*
X133604000Y-82296000D03*
D13*
X84074000Y-77216000D03*
D14*
X84074000Y-82296000D03*
D13*
X34544000Y-77216000D03*
D14*
X34544000Y-82296000D03*
D15*
X146939000Y-82042000D03*
X148209000Y-79502000D03*
X149479000Y-82042000D03*
X150749000Y-79502000D03*
X152019000Y-82042000D03*
X153289000Y-79502000D03*
X154559000Y-82042000D03*
D16*
X155829000Y-79502000D03*
D17*
X26924000Y-77216000D02*
X34544000Y-77216000D01*
X24384000Y-79756000D02*
X26924000Y-77216000D01*
X20653777Y-102336000D02*
X21336000Y-101653777D01*
X19084000Y-102336000D02*
X20653777Y-102336000D01*
X24384000Y-83704000D02*
X24384000Y-82296000D01*
X21336000Y-86752000D02*
X24384000Y-83704000D01*
X21336000Y-101653777D02*
X21336000Y-86752000D01*
X153809001Y-82791999D02*
X153809001Y-101206999D01*
X154559000Y-82042000D02*
X153809001Y-82791999D01*
X153809001Y-101206999D02*
X148336000Y-106680000D01*
X38828000Y-106680000D02*
X29684000Y-97536000D01*
X148336000Y-106680000D02*
X38828000Y-106680000D01*
X152019000Y-83102660D02*
X151892000Y-83229660D01*
X152019000Y-82042000D02*
X152019000Y-83102660D01*
X151892000Y-83229660D02*
X151892000Y-94996000D01*
X151892000Y-94996000D02*
X149352000Y-97536000D01*
X149352000Y-97536000D02*
X131284000Y-97536000D01*
X152084999Y-78297999D02*
X137733999Y-78297999D01*
X153289000Y-79502000D02*
X152084999Y-78297999D01*
X81593999Y-96426001D02*
X80484000Y-97536000D01*
X101958001Y-76061999D02*
X81593999Y-96426001D01*
X135497999Y-76061999D02*
X101958001Y-76061999D01*
X137733999Y-78297999D02*
X135497999Y-76061999D01*
X77724000Y-77216000D02*
X84074000Y-77216000D01*
X75184000Y-79756000D02*
X77724000Y-77216000D01*
X131064000Y-79756000D02*
X133604000Y-77216000D01*
X125857000Y-79756000D02*
X131064000Y-79756000D01*
X181102000Y-79756000D02*
X183388000Y-77470000D01*
X176784000Y-79756000D02*
X181102000Y-79756000D01*
X230124000Y-77216000D02*
X236220000Y-77216000D01*
X227584000Y-79756000D02*
X230124000Y-77216000D01*
X281051000Y-77216000D02*
X286893000Y-77216000D01*
X278511000Y-79756000D02*
X281051000Y-77216000D01*
X70993999Y-101226001D02*
X70993999Y-101218001D01*
X69884000Y-102336000D02*
X70993999Y-101226001D01*
X70993999Y-101218001D02*
X72644000Y-99568000D01*
X75184000Y-83704000D02*
X75184000Y-82296000D01*
X72644000Y-86244000D02*
X75184000Y-83704000D01*
X72644000Y-99568000D02*
X72644000Y-86244000D01*
X123444000Y-99576000D02*
X120684000Y-102336000D01*
X123444000Y-86117000D02*
X123444000Y-99576000D01*
X125857000Y-83704000D02*
X123444000Y-86117000D01*
X125857000Y-82296000D02*
X125857000Y-83704000D01*
X173053777Y-102336000D02*
X174244000Y-101145777D01*
X171484000Y-102336000D02*
X173053777Y-102336000D01*
X176784000Y-83704000D02*
X176784000Y-82296000D01*
X174244000Y-86244000D02*
X176784000Y-83704000D01*
X174244000Y-101145777D02*
X174244000Y-86244000D01*
X223853777Y-102336000D02*
X225044000Y-101145777D01*
X222284000Y-102336000D02*
X223853777Y-102336000D01*
X227584000Y-83704000D02*
X227584000Y-82296000D01*
X225044000Y-86244000D02*
X227584000Y-83704000D01*
X225044000Y-101145777D02*
X225044000Y-86244000D01*
X273084000Y-102336000D02*
X275844000Y-99576000D01*
X278511000Y-83704000D02*
X278511000Y-82296000D01*
X275844000Y-86371000D02*
X278511000Y-83704000D01*
X275844000Y-99576000D02*
X275844000Y-86371000D01*
M02*
