G04 #@! TF.GenerationSoftware,KiCad,Pcbnew,(5.1.2-1)-1*
G04 #@! TF.CreationDate,2019-05-19T16:00:05-07:00*
G04 #@! TF.ProjectId,PedalBoard,50656461-6c42-46f6-9172-642e6b696361,rev?*
G04 #@! TF.SameCoordinates,Original*
G04 #@! TF.FileFunction,Legend,Top*
G04 #@! TF.FilePolarity,Positive*
%FSLAX46Y46*%
G04 Gerber Fmt 4.6, Leading zero omitted, Abs format (unit mm)*
G04 Created by KiCad (PCBNEW (5.1.2-1)-1) date 2019-05-19 16:00:05*
%MOMM*%
%LPD*%
G04 APERTURE LIST*
%ADD10C,0.120000*%
%ADD11C,0.100000*%
%ADD12C,0.150000*%
%ADD13C,0.254000*%
G04 APERTURE END LIST*
D10*
X279591000Y-82586000D02*
X279747000Y-82586000D01*
X277275000Y-82586000D02*
X277431000Y-82586000D01*
X279590837Y-79984870D02*
G75*
G02X279591000Y-82066961I-1079837J-1041130D01*
G01*
X277431163Y-79984870D02*
G75*
G03X277431000Y-82066961I1079837J-1041130D01*
G01*
X279589608Y-79353665D02*
G75*
G02X279746516Y-82586000I-1078608J-1672335D01*
G01*
X277432392Y-79353665D02*
G75*
G03X277275484Y-82586000I1078608J-1672335D01*
G01*
X228664000Y-82586000D02*
X228820000Y-82586000D01*
X226348000Y-82586000D02*
X226504000Y-82586000D01*
X228663837Y-79984870D02*
G75*
G02X228664000Y-82066961I-1079837J-1041130D01*
G01*
X226504163Y-79984870D02*
G75*
G03X226504000Y-82066961I1079837J-1041130D01*
G01*
X228662608Y-79353665D02*
G75*
G02X228819516Y-82586000I-1078608J-1672335D01*
G01*
X226505392Y-79353665D02*
G75*
G03X226348484Y-82586000I1078608J-1672335D01*
G01*
X177864000Y-82586000D02*
X178020000Y-82586000D01*
X175548000Y-82586000D02*
X175704000Y-82586000D01*
X177863837Y-79984870D02*
G75*
G02X177864000Y-82066961I-1079837J-1041130D01*
G01*
X175704163Y-79984870D02*
G75*
G03X175704000Y-82066961I1079837J-1041130D01*
G01*
X177862608Y-79353665D02*
G75*
G02X178019516Y-82586000I-1078608J-1672335D01*
G01*
X175705392Y-79353665D02*
G75*
G03X175548484Y-82586000I1078608J-1672335D01*
G01*
X126937000Y-82586000D02*
X127093000Y-82586000D01*
X124621000Y-82586000D02*
X124777000Y-82586000D01*
X126936837Y-79984870D02*
G75*
G02X126937000Y-82066961I-1079837J-1041130D01*
G01*
X124777163Y-79984870D02*
G75*
G03X124777000Y-82066961I1079837J-1041130D01*
G01*
X126935608Y-79353665D02*
G75*
G02X127092516Y-82586000I-1078608J-1672335D01*
G01*
X124778392Y-79353665D02*
G75*
G03X124621484Y-82586000I1078608J-1672335D01*
G01*
X76264000Y-82586000D02*
X76420000Y-82586000D01*
X73948000Y-82586000D02*
X74104000Y-82586000D01*
X76263837Y-79984870D02*
G75*
G02X76264000Y-82066961I-1079837J-1041130D01*
G01*
X74104163Y-79984870D02*
G75*
G03X74104000Y-82066961I1079837J-1041130D01*
G01*
X76262608Y-79353665D02*
G75*
G02X76419516Y-82586000I-1078608J-1672335D01*
G01*
X74105392Y-79353665D02*
G75*
G03X73948484Y-82586000I1078608J-1672335D01*
G01*
X25464000Y-82586000D02*
X25620000Y-82586000D01*
X23148000Y-82586000D02*
X23304000Y-82586000D01*
X25463837Y-79984870D02*
G75*
G02X25464000Y-82066961I-1079837J-1041130D01*
G01*
X23304163Y-79984870D02*
G75*
G03X23304000Y-82066961I1079837J-1041130D01*
G01*
X25462608Y-79353665D02*
G75*
G02X25619516Y-82586000I-1078608J-1672335D01*
G01*
X23305392Y-79353665D02*
G75*
G03X23148484Y-82586000I1078608J-1672335D01*
G01*
D11*
X268584000Y-106036000D02*
X268584000Y-89036000D01*
X288184000Y-106036000D02*
X268584000Y-106036000D01*
X288184000Y-89036000D02*
X288184000Y-106036000D01*
X268584000Y-89036000D02*
X288184000Y-89036000D01*
X217784000Y-106036000D02*
X217784000Y-89036000D01*
X237384000Y-106036000D02*
X217784000Y-106036000D01*
X237384000Y-89036000D02*
X237384000Y-106036000D01*
X217784000Y-89036000D02*
X237384000Y-89036000D01*
X166984000Y-106036000D02*
X166984000Y-89036000D01*
X186584000Y-106036000D02*
X166984000Y-106036000D01*
X186584000Y-89036000D02*
X186584000Y-106036000D01*
X166984000Y-89036000D02*
X186584000Y-89036000D01*
X116184000Y-106036000D02*
X116184000Y-89036000D01*
X135784000Y-106036000D02*
X116184000Y-106036000D01*
X135784000Y-89036000D02*
X135784000Y-106036000D01*
X116184000Y-89036000D02*
X135784000Y-89036000D01*
X65384000Y-106036000D02*
X65384000Y-89036000D01*
X84984000Y-106036000D02*
X65384000Y-106036000D01*
X84984000Y-89036000D02*
X84984000Y-106036000D01*
X65384000Y-89036000D02*
X84984000Y-89036000D01*
X14584000Y-106036000D02*
X14584000Y-89036000D01*
X34184000Y-106036000D02*
X14584000Y-106036000D01*
X34184000Y-89036000D02*
X34184000Y-106036000D01*
X14584000Y-89036000D02*
X34184000Y-89036000D01*
D10*
X287813000Y-81676000D02*
X287813000Y-77836000D01*
X285973000Y-81676000D02*
X285973000Y-77836000D01*
X237140000Y-81676000D02*
X237140000Y-77836000D01*
X235300000Y-81676000D02*
X235300000Y-77836000D01*
X184308000Y-81930000D02*
X184308000Y-78090000D01*
X182468000Y-81930000D02*
X182468000Y-78090000D01*
X134524000Y-81676000D02*
X134524000Y-77836000D01*
X132684000Y-81676000D02*
X132684000Y-77836000D01*
X84994000Y-81676000D02*
X84994000Y-77836000D01*
X83154000Y-81676000D02*
X83154000Y-77836000D01*
X35464000Y-81676000D02*
X35464000Y-77836000D01*
X33624000Y-81676000D02*
X33624000Y-77836000D01*
X159144000Y-83382000D02*
X159144000Y-65422000D01*
X143624000Y-83382000D02*
X159144000Y-83382000D01*
X143624000Y-83382000D02*
X143624000Y-65422000D01*
X159144000Y-65422000D02*
X143624000Y-65422000D01*
X159329000Y-79502000D02*
X159829000Y-80002000D01*
X159829000Y-80002000D02*
X159829000Y-79002000D01*
X159829000Y-79002000D02*
X159329000Y-79502000D01*
D12*
X276003380Y-81764095D02*
X275003380Y-81764095D01*
X275003380Y-81526000D01*
X275051000Y-81383142D01*
X275146238Y-81287904D01*
X275241476Y-81240285D01*
X275431952Y-81192666D01*
X275574809Y-81192666D01*
X275765285Y-81240285D01*
X275860523Y-81287904D01*
X275955761Y-81383142D01*
X276003380Y-81526000D01*
X276003380Y-81764095D01*
X275003380Y-80335523D02*
X275003380Y-80526000D01*
X275051000Y-80621238D01*
X275098619Y-80668857D01*
X275241476Y-80764095D01*
X275431952Y-80811714D01*
X275812904Y-80811714D01*
X275908142Y-80764095D01*
X275955761Y-80716476D01*
X276003380Y-80621238D01*
X276003380Y-80430761D01*
X275955761Y-80335523D01*
X275908142Y-80287904D01*
X275812904Y-80240285D01*
X275574809Y-80240285D01*
X275479571Y-80287904D01*
X275431952Y-80335523D01*
X275384333Y-80430761D01*
X275384333Y-80621238D01*
X275431952Y-80716476D01*
X275479571Y-80764095D01*
X275574809Y-80811714D01*
X225076380Y-81764095D02*
X224076380Y-81764095D01*
X224076380Y-81526000D01*
X224124000Y-81383142D01*
X224219238Y-81287904D01*
X224314476Y-81240285D01*
X224504952Y-81192666D01*
X224647809Y-81192666D01*
X224838285Y-81240285D01*
X224933523Y-81287904D01*
X225028761Y-81383142D01*
X225076380Y-81526000D01*
X225076380Y-81764095D01*
X224076380Y-80287904D02*
X224076380Y-80764095D01*
X224552571Y-80811714D01*
X224504952Y-80764095D01*
X224457333Y-80668857D01*
X224457333Y-80430761D01*
X224504952Y-80335523D01*
X224552571Y-80287904D01*
X224647809Y-80240285D01*
X224885904Y-80240285D01*
X224981142Y-80287904D01*
X225028761Y-80335523D01*
X225076380Y-80430761D01*
X225076380Y-80668857D01*
X225028761Y-80764095D01*
X224981142Y-80811714D01*
X174276380Y-81764095D02*
X173276380Y-81764095D01*
X173276380Y-81526000D01*
X173324000Y-81383142D01*
X173419238Y-81287904D01*
X173514476Y-81240285D01*
X173704952Y-81192666D01*
X173847809Y-81192666D01*
X174038285Y-81240285D01*
X174133523Y-81287904D01*
X174228761Y-81383142D01*
X174276380Y-81526000D01*
X174276380Y-81764095D01*
X173609714Y-80335523D02*
X174276380Y-80335523D01*
X173228761Y-80573619D02*
X173943047Y-80811714D01*
X173943047Y-80192666D01*
X123349380Y-81764095D02*
X122349380Y-81764095D01*
X122349380Y-81526000D01*
X122397000Y-81383142D01*
X122492238Y-81287904D01*
X122587476Y-81240285D01*
X122777952Y-81192666D01*
X122920809Y-81192666D01*
X123111285Y-81240285D01*
X123206523Y-81287904D01*
X123301761Y-81383142D01*
X123349380Y-81526000D01*
X123349380Y-81764095D01*
X122349380Y-80859333D02*
X122349380Y-80240285D01*
X122730333Y-80573619D01*
X122730333Y-80430761D01*
X122777952Y-80335523D01*
X122825571Y-80287904D01*
X122920809Y-80240285D01*
X123158904Y-80240285D01*
X123254142Y-80287904D01*
X123301761Y-80335523D01*
X123349380Y-80430761D01*
X123349380Y-80716476D01*
X123301761Y-80811714D01*
X123254142Y-80859333D01*
X72676380Y-81764095D02*
X71676380Y-81764095D01*
X71676380Y-81526000D01*
X71724000Y-81383142D01*
X71819238Y-81287904D01*
X71914476Y-81240285D01*
X72104952Y-81192666D01*
X72247809Y-81192666D01*
X72438285Y-81240285D01*
X72533523Y-81287904D01*
X72628761Y-81383142D01*
X72676380Y-81526000D01*
X72676380Y-81764095D01*
X71771619Y-80811714D02*
X71724000Y-80764095D01*
X71676380Y-80668857D01*
X71676380Y-80430761D01*
X71724000Y-80335523D01*
X71771619Y-80287904D01*
X71866857Y-80240285D01*
X71962095Y-80240285D01*
X72104952Y-80287904D01*
X72676380Y-80859333D01*
X72676380Y-80240285D01*
X21876380Y-81764095D02*
X20876380Y-81764095D01*
X20876380Y-81526000D01*
X20924000Y-81383142D01*
X21019238Y-81287904D01*
X21114476Y-81240285D01*
X21304952Y-81192666D01*
X21447809Y-81192666D01*
X21638285Y-81240285D01*
X21733523Y-81287904D01*
X21828761Y-81383142D01*
X21876380Y-81526000D01*
X21876380Y-81764095D01*
X21876380Y-80240285D02*
X21876380Y-80811714D01*
X21876380Y-80526000D02*
X20876380Y-80526000D01*
X21019238Y-80621238D01*
X21114476Y-80716476D01*
X21162095Y-80811714D01*
D13*
X277416380Y-108591047D02*
X277597809Y-108651523D01*
X277900190Y-108651523D01*
X278021142Y-108591047D01*
X278081619Y-108530571D01*
X278142095Y-108409619D01*
X278142095Y-108288666D01*
X278081619Y-108167714D01*
X278021142Y-108107238D01*
X277900190Y-108046761D01*
X277658285Y-107986285D01*
X277537333Y-107925809D01*
X277476857Y-107865333D01*
X277416380Y-107744380D01*
X277416380Y-107623428D01*
X277476857Y-107502476D01*
X277537333Y-107442000D01*
X277658285Y-107381523D01*
X277960666Y-107381523D01*
X278142095Y-107442000D01*
X279230666Y-107381523D02*
X278988761Y-107381523D01*
X278867809Y-107442000D01*
X278807333Y-107502476D01*
X278686380Y-107683904D01*
X278625904Y-107925809D01*
X278625904Y-108409619D01*
X278686380Y-108530571D01*
X278746857Y-108591047D01*
X278867809Y-108651523D01*
X279109714Y-108651523D01*
X279230666Y-108591047D01*
X279291142Y-108530571D01*
X279351619Y-108409619D01*
X279351619Y-108107238D01*
X279291142Y-107986285D01*
X279230666Y-107925809D01*
X279109714Y-107865333D01*
X278867809Y-107865333D01*
X278746857Y-107925809D01*
X278686380Y-107986285D01*
X278625904Y-108107238D01*
X226616380Y-108591047D02*
X226797809Y-108651523D01*
X227100190Y-108651523D01*
X227221142Y-108591047D01*
X227281619Y-108530571D01*
X227342095Y-108409619D01*
X227342095Y-108288666D01*
X227281619Y-108167714D01*
X227221142Y-108107238D01*
X227100190Y-108046761D01*
X226858285Y-107986285D01*
X226737333Y-107925809D01*
X226676857Y-107865333D01*
X226616380Y-107744380D01*
X226616380Y-107623428D01*
X226676857Y-107502476D01*
X226737333Y-107442000D01*
X226858285Y-107381523D01*
X227160666Y-107381523D01*
X227342095Y-107442000D01*
X228491142Y-107381523D02*
X227886380Y-107381523D01*
X227825904Y-107986285D01*
X227886380Y-107925809D01*
X228007333Y-107865333D01*
X228309714Y-107865333D01*
X228430666Y-107925809D01*
X228491142Y-107986285D01*
X228551619Y-108107238D01*
X228551619Y-108409619D01*
X228491142Y-108530571D01*
X228430666Y-108591047D01*
X228309714Y-108651523D01*
X228007333Y-108651523D01*
X227886380Y-108591047D01*
X227825904Y-108530571D01*
X175816380Y-108591047D02*
X175997809Y-108651523D01*
X176300190Y-108651523D01*
X176421142Y-108591047D01*
X176481619Y-108530571D01*
X176542095Y-108409619D01*
X176542095Y-108288666D01*
X176481619Y-108167714D01*
X176421142Y-108107238D01*
X176300190Y-108046761D01*
X176058285Y-107986285D01*
X175937333Y-107925809D01*
X175876857Y-107865333D01*
X175816380Y-107744380D01*
X175816380Y-107623428D01*
X175876857Y-107502476D01*
X175937333Y-107442000D01*
X176058285Y-107381523D01*
X176360666Y-107381523D01*
X176542095Y-107442000D01*
X177630666Y-107804857D02*
X177630666Y-108651523D01*
X177328285Y-107321047D02*
X177025904Y-108228190D01*
X177812095Y-108228190D01*
X125016380Y-108591047D02*
X125197809Y-108651523D01*
X125500190Y-108651523D01*
X125621142Y-108591047D01*
X125681619Y-108530571D01*
X125742095Y-108409619D01*
X125742095Y-108288666D01*
X125681619Y-108167714D01*
X125621142Y-108107238D01*
X125500190Y-108046761D01*
X125258285Y-107986285D01*
X125137333Y-107925809D01*
X125076857Y-107865333D01*
X125016380Y-107744380D01*
X125016380Y-107623428D01*
X125076857Y-107502476D01*
X125137333Y-107442000D01*
X125258285Y-107381523D01*
X125560666Y-107381523D01*
X125742095Y-107442000D01*
X126165428Y-107381523D02*
X126951619Y-107381523D01*
X126528285Y-107865333D01*
X126709714Y-107865333D01*
X126830666Y-107925809D01*
X126891142Y-107986285D01*
X126951619Y-108107238D01*
X126951619Y-108409619D01*
X126891142Y-108530571D01*
X126830666Y-108591047D01*
X126709714Y-108651523D01*
X126346857Y-108651523D01*
X126225904Y-108591047D01*
X126165428Y-108530571D01*
X74216380Y-108591047D02*
X74397809Y-108651523D01*
X74700190Y-108651523D01*
X74821142Y-108591047D01*
X74881619Y-108530571D01*
X74942095Y-108409619D01*
X74942095Y-108288666D01*
X74881619Y-108167714D01*
X74821142Y-108107238D01*
X74700190Y-108046761D01*
X74458285Y-107986285D01*
X74337333Y-107925809D01*
X74276857Y-107865333D01*
X74216380Y-107744380D01*
X74216380Y-107623428D01*
X74276857Y-107502476D01*
X74337333Y-107442000D01*
X74458285Y-107381523D01*
X74760666Y-107381523D01*
X74942095Y-107442000D01*
X75425904Y-107502476D02*
X75486380Y-107442000D01*
X75607333Y-107381523D01*
X75909714Y-107381523D01*
X76030666Y-107442000D01*
X76091142Y-107502476D01*
X76151619Y-107623428D01*
X76151619Y-107744380D01*
X76091142Y-107925809D01*
X75365428Y-108651523D01*
X76151619Y-108651523D01*
X23416380Y-108591047D02*
X23597809Y-108651523D01*
X23900190Y-108651523D01*
X24021142Y-108591047D01*
X24081619Y-108530571D01*
X24142095Y-108409619D01*
X24142095Y-108288666D01*
X24081619Y-108167714D01*
X24021142Y-108107238D01*
X23900190Y-108046761D01*
X23658285Y-107986285D01*
X23537333Y-107925809D01*
X23476857Y-107865333D01*
X23416380Y-107744380D01*
X23416380Y-107623428D01*
X23476857Y-107502476D01*
X23537333Y-107442000D01*
X23658285Y-107381523D01*
X23960666Y-107381523D01*
X24142095Y-107442000D01*
X25351619Y-108651523D02*
X24625904Y-108651523D01*
X24988761Y-108651523D02*
X24988761Y-107381523D01*
X24867809Y-107562952D01*
X24746857Y-107683904D01*
X24625904Y-107744380D01*
D12*
X285425380Y-79922666D02*
X284949190Y-80256000D01*
X285425380Y-80494095D02*
X284425380Y-80494095D01*
X284425380Y-80113142D01*
X284473000Y-80017904D01*
X284520619Y-79970285D01*
X284615857Y-79922666D01*
X284758714Y-79922666D01*
X284853952Y-79970285D01*
X284901571Y-80017904D01*
X284949190Y-80113142D01*
X284949190Y-80494095D01*
X284425380Y-79065523D02*
X284425380Y-79256000D01*
X284473000Y-79351238D01*
X284520619Y-79398857D01*
X284663476Y-79494095D01*
X284853952Y-79541714D01*
X285234904Y-79541714D01*
X285330142Y-79494095D01*
X285377761Y-79446476D01*
X285425380Y-79351238D01*
X285425380Y-79160761D01*
X285377761Y-79065523D01*
X285330142Y-79017904D01*
X285234904Y-78970285D01*
X284996809Y-78970285D01*
X284901571Y-79017904D01*
X284853952Y-79065523D01*
X284806333Y-79160761D01*
X284806333Y-79351238D01*
X284853952Y-79446476D01*
X284901571Y-79494095D01*
X284996809Y-79541714D01*
X234752380Y-79922666D02*
X234276190Y-80256000D01*
X234752380Y-80494095D02*
X233752380Y-80494095D01*
X233752380Y-80113142D01*
X233800000Y-80017904D01*
X233847619Y-79970285D01*
X233942857Y-79922666D01*
X234085714Y-79922666D01*
X234180952Y-79970285D01*
X234228571Y-80017904D01*
X234276190Y-80113142D01*
X234276190Y-80494095D01*
X233752380Y-79017904D02*
X233752380Y-79494095D01*
X234228571Y-79541714D01*
X234180952Y-79494095D01*
X234133333Y-79398857D01*
X234133333Y-79160761D01*
X234180952Y-79065523D01*
X234228571Y-79017904D01*
X234323809Y-78970285D01*
X234561904Y-78970285D01*
X234657142Y-79017904D01*
X234704761Y-79065523D01*
X234752380Y-79160761D01*
X234752380Y-79398857D01*
X234704761Y-79494095D01*
X234657142Y-79541714D01*
X181920380Y-80176666D02*
X181444190Y-80510000D01*
X181920380Y-80748095D02*
X180920380Y-80748095D01*
X180920380Y-80367142D01*
X180968000Y-80271904D01*
X181015619Y-80224285D01*
X181110857Y-80176666D01*
X181253714Y-80176666D01*
X181348952Y-80224285D01*
X181396571Y-80271904D01*
X181444190Y-80367142D01*
X181444190Y-80748095D01*
X181253714Y-79319523D02*
X181920380Y-79319523D01*
X180872761Y-79557619D02*
X181587047Y-79795714D01*
X181587047Y-79176666D01*
X132136380Y-79922666D02*
X131660190Y-80256000D01*
X132136380Y-80494095D02*
X131136380Y-80494095D01*
X131136380Y-80113142D01*
X131184000Y-80017904D01*
X131231619Y-79970285D01*
X131326857Y-79922666D01*
X131469714Y-79922666D01*
X131564952Y-79970285D01*
X131612571Y-80017904D01*
X131660190Y-80113142D01*
X131660190Y-80494095D01*
X131136380Y-79589333D02*
X131136380Y-78970285D01*
X131517333Y-79303619D01*
X131517333Y-79160761D01*
X131564952Y-79065523D01*
X131612571Y-79017904D01*
X131707809Y-78970285D01*
X131945904Y-78970285D01*
X132041142Y-79017904D01*
X132088761Y-79065523D01*
X132136380Y-79160761D01*
X132136380Y-79446476D01*
X132088761Y-79541714D01*
X132041142Y-79589333D01*
X82606380Y-79922666D02*
X82130190Y-80256000D01*
X82606380Y-80494095D02*
X81606380Y-80494095D01*
X81606380Y-80113142D01*
X81654000Y-80017904D01*
X81701619Y-79970285D01*
X81796857Y-79922666D01*
X81939714Y-79922666D01*
X82034952Y-79970285D01*
X82082571Y-80017904D01*
X82130190Y-80113142D01*
X82130190Y-80494095D01*
X81701619Y-79541714D02*
X81654000Y-79494095D01*
X81606380Y-79398857D01*
X81606380Y-79160761D01*
X81654000Y-79065523D01*
X81701619Y-79017904D01*
X81796857Y-78970285D01*
X81892095Y-78970285D01*
X82034952Y-79017904D01*
X82606380Y-79589333D01*
X82606380Y-78970285D01*
X33076380Y-79922666D02*
X32600190Y-80256000D01*
X33076380Y-80494095D02*
X32076380Y-80494095D01*
X32076380Y-80113142D01*
X32124000Y-80017904D01*
X32171619Y-79970285D01*
X32266857Y-79922666D01*
X32409714Y-79922666D01*
X32504952Y-79970285D01*
X32552571Y-80017904D01*
X32600190Y-80113142D01*
X32600190Y-80494095D01*
X33076380Y-78970285D02*
X33076380Y-79541714D01*
X33076380Y-79256000D02*
X32076380Y-79256000D01*
X32219238Y-79351238D01*
X32314476Y-79446476D01*
X32362095Y-79541714D01*
X151050666Y-83954380D02*
X151050666Y-84668666D01*
X151003047Y-84811523D01*
X150907809Y-84906761D01*
X150764952Y-84954380D01*
X150669714Y-84954380D01*
X152050666Y-84954380D02*
X151479238Y-84954380D01*
X151764952Y-84954380D02*
X151764952Y-83954380D01*
X151669714Y-84097238D01*
X151574476Y-84192476D01*
X151479238Y-84240095D01*
M02*
