G04 #@! TF.GenerationSoftware,KiCad,Pcbnew,(5.1.2-1)-1*
G04 #@! TF.CreationDate,2019-05-19T16:00:05-07:00*
G04 #@! TF.ProjectId,PedalBoard,50656461-6c42-46f6-9172-642e6b696361,rev?*
G04 #@! TF.SameCoordinates,Original*
G04 #@! TF.FileFunction,Soldermask,Bot*
G04 #@! TF.FilePolarity,Negative*
%FSLAX46Y46*%
G04 Gerber Fmt 4.6, Leading zero omitted, Abs format (unit mm)*
G04 Created by KiCad (PCBNEW (5.1.2-1)-1) date 2019-05-19 16:00:05*
%MOMM*%
%LPD*%
G04 APERTURE LIST*
%ADD10C,0.100000*%
G04 APERTURE END LIST*
D10*
G36*
X284022651Y-101219616D02*
G01*
X284233940Y-101307135D01*
X284424095Y-101434192D01*
X284585808Y-101595905D01*
X284712865Y-101786060D01*
X284800384Y-101997349D01*
X284845000Y-102221651D01*
X284845000Y-102450349D01*
X284800384Y-102674651D01*
X284712865Y-102885940D01*
X284585808Y-103076095D01*
X284424095Y-103237808D01*
X284233940Y-103364865D01*
X284022651Y-103452384D01*
X283798349Y-103497000D01*
X283569651Y-103497000D01*
X283345349Y-103452384D01*
X283134060Y-103364865D01*
X282943905Y-103237808D01*
X282782192Y-103076095D01*
X282655135Y-102885940D01*
X282567616Y-102674651D01*
X282523000Y-102450349D01*
X282523000Y-102221651D01*
X282567616Y-101997349D01*
X282655135Y-101786060D01*
X282782192Y-101595905D01*
X282943905Y-101434192D01*
X283134060Y-101307135D01*
X283345349Y-101219616D01*
X283569651Y-101175000D01*
X283798349Y-101175000D01*
X284022651Y-101219616D01*
X284022651Y-101219616D01*
G37*
G36*
X278722651Y-101219616D02*
G01*
X278933940Y-101307135D01*
X279124095Y-101434192D01*
X279285808Y-101595905D01*
X279412865Y-101786060D01*
X279500384Y-101997349D01*
X279545000Y-102221651D01*
X279545000Y-102450349D01*
X279500384Y-102674651D01*
X279412865Y-102885940D01*
X279285808Y-103076095D01*
X279124095Y-103237808D01*
X278933940Y-103364865D01*
X278722651Y-103452384D01*
X278498349Y-103497000D01*
X278269651Y-103497000D01*
X278045349Y-103452384D01*
X277834060Y-103364865D01*
X277643905Y-103237808D01*
X277482192Y-103076095D01*
X277355135Y-102885940D01*
X277267616Y-102674651D01*
X277223000Y-102450349D01*
X277223000Y-102221651D01*
X277267616Y-101997349D01*
X277355135Y-101786060D01*
X277482192Y-101595905D01*
X277643905Y-101434192D01*
X277834060Y-101307135D01*
X278045349Y-101219616D01*
X278269651Y-101175000D01*
X278498349Y-101175000D01*
X278722651Y-101219616D01*
X278722651Y-101219616D01*
G37*
G36*
X273422651Y-101219616D02*
G01*
X273633940Y-101307135D01*
X273824095Y-101434192D01*
X273985808Y-101595905D01*
X274112865Y-101786060D01*
X274200384Y-101997349D01*
X274245000Y-102221651D01*
X274245000Y-102450349D01*
X274200384Y-102674651D01*
X274112865Y-102885940D01*
X273985808Y-103076095D01*
X273824095Y-103237808D01*
X273633940Y-103364865D01*
X273422651Y-103452384D01*
X273198349Y-103497000D01*
X272969651Y-103497000D01*
X272745349Y-103452384D01*
X272534060Y-103364865D01*
X272343905Y-103237808D01*
X272182192Y-103076095D01*
X272055135Y-102885940D01*
X271967616Y-102674651D01*
X271923000Y-102450349D01*
X271923000Y-102221651D01*
X271967616Y-101997349D01*
X272055135Y-101786060D01*
X272182192Y-101595905D01*
X272343905Y-101434192D01*
X272534060Y-101307135D01*
X272745349Y-101219616D01*
X272969651Y-101175000D01*
X273198349Y-101175000D01*
X273422651Y-101219616D01*
X273422651Y-101219616D01*
G37*
G36*
X233222651Y-101219616D02*
G01*
X233433940Y-101307135D01*
X233624095Y-101434192D01*
X233785808Y-101595905D01*
X233912865Y-101786060D01*
X234000384Y-101997349D01*
X234045000Y-102221651D01*
X234045000Y-102450349D01*
X234000384Y-102674651D01*
X233912865Y-102885940D01*
X233785808Y-103076095D01*
X233624095Y-103237808D01*
X233433940Y-103364865D01*
X233222651Y-103452384D01*
X232998349Y-103497000D01*
X232769651Y-103497000D01*
X232545349Y-103452384D01*
X232334060Y-103364865D01*
X232143905Y-103237808D01*
X231982192Y-103076095D01*
X231855135Y-102885940D01*
X231767616Y-102674651D01*
X231723000Y-102450349D01*
X231723000Y-102221651D01*
X231767616Y-101997349D01*
X231855135Y-101786060D01*
X231982192Y-101595905D01*
X232143905Y-101434192D01*
X232334060Y-101307135D01*
X232545349Y-101219616D01*
X232769651Y-101175000D01*
X232998349Y-101175000D01*
X233222651Y-101219616D01*
X233222651Y-101219616D01*
G37*
G36*
X227922651Y-101219616D02*
G01*
X228133940Y-101307135D01*
X228324095Y-101434192D01*
X228485808Y-101595905D01*
X228612865Y-101786060D01*
X228700384Y-101997349D01*
X228745000Y-102221651D01*
X228745000Y-102450349D01*
X228700384Y-102674651D01*
X228612865Y-102885940D01*
X228485808Y-103076095D01*
X228324095Y-103237808D01*
X228133940Y-103364865D01*
X227922651Y-103452384D01*
X227698349Y-103497000D01*
X227469651Y-103497000D01*
X227245349Y-103452384D01*
X227034060Y-103364865D01*
X226843905Y-103237808D01*
X226682192Y-103076095D01*
X226555135Y-102885940D01*
X226467616Y-102674651D01*
X226423000Y-102450349D01*
X226423000Y-102221651D01*
X226467616Y-101997349D01*
X226555135Y-101786060D01*
X226682192Y-101595905D01*
X226843905Y-101434192D01*
X227034060Y-101307135D01*
X227245349Y-101219616D01*
X227469651Y-101175000D01*
X227698349Y-101175000D01*
X227922651Y-101219616D01*
X227922651Y-101219616D01*
G37*
G36*
X222622651Y-101219616D02*
G01*
X222833940Y-101307135D01*
X223024095Y-101434192D01*
X223185808Y-101595905D01*
X223312865Y-101786060D01*
X223400384Y-101997349D01*
X223445000Y-102221651D01*
X223445000Y-102450349D01*
X223400384Y-102674651D01*
X223312865Y-102885940D01*
X223185808Y-103076095D01*
X223024095Y-103237808D01*
X222833940Y-103364865D01*
X222622651Y-103452384D01*
X222398349Y-103497000D01*
X222169651Y-103497000D01*
X221945349Y-103452384D01*
X221734060Y-103364865D01*
X221543905Y-103237808D01*
X221382192Y-103076095D01*
X221255135Y-102885940D01*
X221167616Y-102674651D01*
X221123000Y-102450349D01*
X221123000Y-102221651D01*
X221167616Y-101997349D01*
X221255135Y-101786060D01*
X221382192Y-101595905D01*
X221543905Y-101434192D01*
X221734060Y-101307135D01*
X221945349Y-101219616D01*
X222169651Y-101175000D01*
X222398349Y-101175000D01*
X222622651Y-101219616D01*
X222622651Y-101219616D01*
G37*
G36*
X182422651Y-101219616D02*
G01*
X182633940Y-101307135D01*
X182824095Y-101434192D01*
X182985808Y-101595905D01*
X183112865Y-101786060D01*
X183200384Y-101997349D01*
X183245000Y-102221651D01*
X183245000Y-102450349D01*
X183200384Y-102674651D01*
X183112865Y-102885940D01*
X182985808Y-103076095D01*
X182824095Y-103237808D01*
X182633940Y-103364865D01*
X182422651Y-103452384D01*
X182198349Y-103497000D01*
X181969651Y-103497000D01*
X181745349Y-103452384D01*
X181534060Y-103364865D01*
X181343905Y-103237808D01*
X181182192Y-103076095D01*
X181055135Y-102885940D01*
X180967616Y-102674651D01*
X180923000Y-102450349D01*
X180923000Y-102221651D01*
X180967616Y-101997349D01*
X181055135Y-101786060D01*
X181182192Y-101595905D01*
X181343905Y-101434192D01*
X181534060Y-101307135D01*
X181745349Y-101219616D01*
X181969651Y-101175000D01*
X182198349Y-101175000D01*
X182422651Y-101219616D01*
X182422651Y-101219616D01*
G37*
G36*
X177122651Y-101219616D02*
G01*
X177333940Y-101307135D01*
X177524095Y-101434192D01*
X177685808Y-101595905D01*
X177812865Y-101786060D01*
X177900384Y-101997349D01*
X177945000Y-102221651D01*
X177945000Y-102450349D01*
X177900384Y-102674651D01*
X177812865Y-102885940D01*
X177685808Y-103076095D01*
X177524095Y-103237808D01*
X177333940Y-103364865D01*
X177122651Y-103452384D01*
X176898349Y-103497000D01*
X176669651Y-103497000D01*
X176445349Y-103452384D01*
X176234060Y-103364865D01*
X176043905Y-103237808D01*
X175882192Y-103076095D01*
X175755135Y-102885940D01*
X175667616Y-102674651D01*
X175623000Y-102450349D01*
X175623000Y-102221651D01*
X175667616Y-101997349D01*
X175755135Y-101786060D01*
X175882192Y-101595905D01*
X176043905Y-101434192D01*
X176234060Y-101307135D01*
X176445349Y-101219616D01*
X176669651Y-101175000D01*
X176898349Y-101175000D01*
X177122651Y-101219616D01*
X177122651Y-101219616D01*
G37*
G36*
X171822651Y-101219616D02*
G01*
X172033940Y-101307135D01*
X172224095Y-101434192D01*
X172385808Y-101595905D01*
X172512865Y-101786060D01*
X172600384Y-101997349D01*
X172645000Y-102221651D01*
X172645000Y-102450349D01*
X172600384Y-102674651D01*
X172512865Y-102885940D01*
X172385808Y-103076095D01*
X172224095Y-103237808D01*
X172033940Y-103364865D01*
X171822651Y-103452384D01*
X171598349Y-103497000D01*
X171369651Y-103497000D01*
X171145349Y-103452384D01*
X170934060Y-103364865D01*
X170743905Y-103237808D01*
X170582192Y-103076095D01*
X170455135Y-102885940D01*
X170367616Y-102674651D01*
X170323000Y-102450349D01*
X170323000Y-102221651D01*
X170367616Y-101997349D01*
X170455135Y-101786060D01*
X170582192Y-101595905D01*
X170743905Y-101434192D01*
X170934060Y-101307135D01*
X171145349Y-101219616D01*
X171369651Y-101175000D01*
X171598349Y-101175000D01*
X171822651Y-101219616D01*
X171822651Y-101219616D01*
G37*
G36*
X131622651Y-101219616D02*
G01*
X131833940Y-101307135D01*
X132024095Y-101434192D01*
X132185808Y-101595905D01*
X132312865Y-101786060D01*
X132400384Y-101997349D01*
X132445000Y-102221651D01*
X132445000Y-102450349D01*
X132400384Y-102674651D01*
X132312865Y-102885940D01*
X132185808Y-103076095D01*
X132024095Y-103237808D01*
X131833940Y-103364865D01*
X131622651Y-103452384D01*
X131398349Y-103497000D01*
X131169651Y-103497000D01*
X130945349Y-103452384D01*
X130734060Y-103364865D01*
X130543905Y-103237808D01*
X130382192Y-103076095D01*
X130255135Y-102885940D01*
X130167616Y-102674651D01*
X130123000Y-102450349D01*
X130123000Y-102221651D01*
X130167616Y-101997349D01*
X130255135Y-101786060D01*
X130382192Y-101595905D01*
X130543905Y-101434192D01*
X130734060Y-101307135D01*
X130945349Y-101219616D01*
X131169651Y-101175000D01*
X131398349Y-101175000D01*
X131622651Y-101219616D01*
X131622651Y-101219616D01*
G37*
G36*
X126322651Y-101219616D02*
G01*
X126533940Y-101307135D01*
X126724095Y-101434192D01*
X126885808Y-101595905D01*
X127012865Y-101786060D01*
X127100384Y-101997349D01*
X127145000Y-102221651D01*
X127145000Y-102450349D01*
X127100384Y-102674651D01*
X127012865Y-102885940D01*
X126885808Y-103076095D01*
X126724095Y-103237808D01*
X126533940Y-103364865D01*
X126322651Y-103452384D01*
X126098349Y-103497000D01*
X125869651Y-103497000D01*
X125645349Y-103452384D01*
X125434060Y-103364865D01*
X125243905Y-103237808D01*
X125082192Y-103076095D01*
X124955135Y-102885940D01*
X124867616Y-102674651D01*
X124823000Y-102450349D01*
X124823000Y-102221651D01*
X124867616Y-101997349D01*
X124955135Y-101786060D01*
X125082192Y-101595905D01*
X125243905Y-101434192D01*
X125434060Y-101307135D01*
X125645349Y-101219616D01*
X125869651Y-101175000D01*
X126098349Y-101175000D01*
X126322651Y-101219616D01*
X126322651Y-101219616D01*
G37*
G36*
X121022651Y-101219616D02*
G01*
X121233940Y-101307135D01*
X121424095Y-101434192D01*
X121585808Y-101595905D01*
X121712865Y-101786060D01*
X121800384Y-101997349D01*
X121845000Y-102221651D01*
X121845000Y-102450349D01*
X121800384Y-102674651D01*
X121712865Y-102885940D01*
X121585808Y-103076095D01*
X121424095Y-103237808D01*
X121233940Y-103364865D01*
X121022651Y-103452384D01*
X120798349Y-103497000D01*
X120569651Y-103497000D01*
X120345349Y-103452384D01*
X120134060Y-103364865D01*
X119943905Y-103237808D01*
X119782192Y-103076095D01*
X119655135Y-102885940D01*
X119567616Y-102674651D01*
X119523000Y-102450349D01*
X119523000Y-102221651D01*
X119567616Y-101997349D01*
X119655135Y-101786060D01*
X119782192Y-101595905D01*
X119943905Y-101434192D01*
X120134060Y-101307135D01*
X120345349Y-101219616D01*
X120569651Y-101175000D01*
X120798349Y-101175000D01*
X121022651Y-101219616D01*
X121022651Y-101219616D01*
G37*
G36*
X80822651Y-101219616D02*
G01*
X81033940Y-101307135D01*
X81224095Y-101434192D01*
X81385808Y-101595905D01*
X81512865Y-101786060D01*
X81600384Y-101997349D01*
X81645000Y-102221651D01*
X81645000Y-102450349D01*
X81600384Y-102674651D01*
X81512865Y-102885940D01*
X81385808Y-103076095D01*
X81224095Y-103237808D01*
X81033940Y-103364865D01*
X80822651Y-103452384D01*
X80598349Y-103497000D01*
X80369651Y-103497000D01*
X80145349Y-103452384D01*
X79934060Y-103364865D01*
X79743905Y-103237808D01*
X79582192Y-103076095D01*
X79455135Y-102885940D01*
X79367616Y-102674651D01*
X79323000Y-102450349D01*
X79323000Y-102221651D01*
X79367616Y-101997349D01*
X79455135Y-101786060D01*
X79582192Y-101595905D01*
X79743905Y-101434192D01*
X79934060Y-101307135D01*
X80145349Y-101219616D01*
X80369651Y-101175000D01*
X80598349Y-101175000D01*
X80822651Y-101219616D01*
X80822651Y-101219616D01*
G37*
G36*
X75522651Y-101219616D02*
G01*
X75733940Y-101307135D01*
X75924095Y-101434192D01*
X76085808Y-101595905D01*
X76212865Y-101786060D01*
X76300384Y-101997349D01*
X76345000Y-102221651D01*
X76345000Y-102450349D01*
X76300384Y-102674651D01*
X76212865Y-102885940D01*
X76085808Y-103076095D01*
X75924095Y-103237808D01*
X75733940Y-103364865D01*
X75522651Y-103452384D01*
X75298349Y-103497000D01*
X75069651Y-103497000D01*
X74845349Y-103452384D01*
X74634060Y-103364865D01*
X74443905Y-103237808D01*
X74282192Y-103076095D01*
X74155135Y-102885940D01*
X74067616Y-102674651D01*
X74023000Y-102450349D01*
X74023000Y-102221651D01*
X74067616Y-101997349D01*
X74155135Y-101786060D01*
X74282192Y-101595905D01*
X74443905Y-101434192D01*
X74634060Y-101307135D01*
X74845349Y-101219616D01*
X75069651Y-101175000D01*
X75298349Y-101175000D01*
X75522651Y-101219616D01*
X75522651Y-101219616D01*
G37*
G36*
X70222651Y-101219616D02*
G01*
X70433940Y-101307135D01*
X70624095Y-101434192D01*
X70785808Y-101595905D01*
X70912865Y-101786060D01*
X71000384Y-101997349D01*
X71045000Y-102221651D01*
X71045000Y-102450349D01*
X71000384Y-102674651D01*
X70912865Y-102885940D01*
X70785808Y-103076095D01*
X70624095Y-103237808D01*
X70433940Y-103364865D01*
X70222651Y-103452384D01*
X69998349Y-103497000D01*
X69769651Y-103497000D01*
X69545349Y-103452384D01*
X69334060Y-103364865D01*
X69143905Y-103237808D01*
X68982192Y-103076095D01*
X68855135Y-102885940D01*
X68767616Y-102674651D01*
X68723000Y-102450349D01*
X68723000Y-102221651D01*
X68767616Y-101997349D01*
X68855135Y-101786060D01*
X68982192Y-101595905D01*
X69143905Y-101434192D01*
X69334060Y-101307135D01*
X69545349Y-101219616D01*
X69769651Y-101175000D01*
X69998349Y-101175000D01*
X70222651Y-101219616D01*
X70222651Y-101219616D01*
G37*
G36*
X30022651Y-101219616D02*
G01*
X30233940Y-101307135D01*
X30424095Y-101434192D01*
X30585808Y-101595905D01*
X30712865Y-101786060D01*
X30800384Y-101997349D01*
X30845000Y-102221651D01*
X30845000Y-102450349D01*
X30800384Y-102674651D01*
X30712865Y-102885940D01*
X30585808Y-103076095D01*
X30424095Y-103237808D01*
X30233940Y-103364865D01*
X30022651Y-103452384D01*
X29798349Y-103497000D01*
X29569651Y-103497000D01*
X29345349Y-103452384D01*
X29134060Y-103364865D01*
X28943905Y-103237808D01*
X28782192Y-103076095D01*
X28655135Y-102885940D01*
X28567616Y-102674651D01*
X28523000Y-102450349D01*
X28523000Y-102221651D01*
X28567616Y-101997349D01*
X28655135Y-101786060D01*
X28782192Y-101595905D01*
X28943905Y-101434192D01*
X29134060Y-101307135D01*
X29345349Y-101219616D01*
X29569651Y-101175000D01*
X29798349Y-101175000D01*
X30022651Y-101219616D01*
X30022651Y-101219616D01*
G37*
G36*
X24722651Y-101219616D02*
G01*
X24933940Y-101307135D01*
X25124095Y-101434192D01*
X25285808Y-101595905D01*
X25412865Y-101786060D01*
X25500384Y-101997349D01*
X25545000Y-102221651D01*
X25545000Y-102450349D01*
X25500384Y-102674651D01*
X25412865Y-102885940D01*
X25285808Y-103076095D01*
X25124095Y-103237808D01*
X24933940Y-103364865D01*
X24722651Y-103452384D01*
X24498349Y-103497000D01*
X24269651Y-103497000D01*
X24045349Y-103452384D01*
X23834060Y-103364865D01*
X23643905Y-103237808D01*
X23482192Y-103076095D01*
X23355135Y-102885940D01*
X23267616Y-102674651D01*
X23223000Y-102450349D01*
X23223000Y-102221651D01*
X23267616Y-101997349D01*
X23355135Y-101786060D01*
X23482192Y-101595905D01*
X23643905Y-101434192D01*
X23834060Y-101307135D01*
X24045349Y-101219616D01*
X24269651Y-101175000D01*
X24498349Y-101175000D01*
X24722651Y-101219616D01*
X24722651Y-101219616D01*
G37*
G36*
X19422651Y-101219616D02*
G01*
X19633940Y-101307135D01*
X19824095Y-101434192D01*
X19985808Y-101595905D01*
X20112865Y-101786060D01*
X20200384Y-101997349D01*
X20245000Y-102221651D01*
X20245000Y-102450349D01*
X20200384Y-102674651D01*
X20112865Y-102885940D01*
X19985808Y-103076095D01*
X19824095Y-103237808D01*
X19633940Y-103364865D01*
X19422651Y-103452384D01*
X19198349Y-103497000D01*
X18969651Y-103497000D01*
X18745349Y-103452384D01*
X18534060Y-103364865D01*
X18343905Y-103237808D01*
X18182192Y-103076095D01*
X18055135Y-102885940D01*
X17967616Y-102674651D01*
X17923000Y-102450349D01*
X17923000Y-102221651D01*
X17967616Y-101997349D01*
X18055135Y-101786060D01*
X18182192Y-101595905D01*
X18343905Y-101434192D01*
X18534060Y-101307135D01*
X18745349Y-101219616D01*
X18969651Y-101175000D01*
X19198349Y-101175000D01*
X19422651Y-101219616D01*
X19422651Y-101219616D01*
G37*
G36*
X19422651Y-96419616D02*
G01*
X19633940Y-96507135D01*
X19824095Y-96634192D01*
X19985808Y-96795905D01*
X20112865Y-96986060D01*
X20200384Y-97197349D01*
X20245000Y-97421651D01*
X20245000Y-97650349D01*
X20200384Y-97874651D01*
X20112865Y-98085940D01*
X19985808Y-98276095D01*
X19824095Y-98437808D01*
X19633940Y-98564865D01*
X19422651Y-98652384D01*
X19198349Y-98697000D01*
X18969651Y-98697000D01*
X18745349Y-98652384D01*
X18534060Y-98564865D01*
X18343905Y-98437808D01*
X18182192Y-98276095D01*
X18055135Y-98085940D01*
X17967616Y-97874651D01*
X17923000Y-97650349D01*
X17923000Y-97421651D01*
X17967616Y-97197349D01*
X18055135Y-96986060D01*
X18182192Y-96795905D01*
X18343905Y-96634192D01*
X18534060Y-96507135D01*
X18745349Y-96419616D01*
X18969651Y-96375000D01*
X19198349Y-96375000D01*
X19422651Y-96419616D01*
X19422651Y-96419616D01*
G37*
G36*
X70222651Y-96419616D02*
G01*
X70433940Y-96507135D01*
X70624095Y-96634192D01*
X70785808Y-96795905D01*
X70912865Y-96986060D01*
X71000384Y-97197349D01*
X71045000Y-97421651D01*
X71045000Y-97650349D01*
X71000384Y-97874651D01*
X70912865Y-98085940D01*
X70785808Y-98276095D01*
X70624095Y-98437808D01*
X70433940Y-98564865D01*
X70222651Y-98652384D01*
X69998349Y-98697000D01*
X69769651Y-98697000D01*
X69545349Y-98652384D01*
X69334060Y-98564865D01*
X69143905Y-98437808D01*
X68982192Y-98276095D01*
X68855135Y-98085940D01*
X68767616Y-97874651D01*
X68723000Y-97650349D01*
X68723000Y-97421651D01*
X68767616Y-97197349D01*
X68855135Y-96986060D01*
X68982192Y-96795905D01*
X69143905Y-96634192D01*
X69334060Y-96507135D01*
X69545349Y-96419616D01*
X69769651Y-96375000D01*
X69998349Y-96375000D01*
X70222651Y-96419616D01*
X70222651Y-96419616D01*
G37*
G36*
X24722651Y-96419616D02*
G01*
X24933940Y-96507135D01*
X25124095Y-96634192D01*
X25285808Y-96795905D01*
X25412865Y-96986060D01*
X25500384Y-97197349D01*
X25545000Y-97421651D01*
X25545000Y-97650349D01*
X25500384Y-97874651D01*
X25412865Y-98085940D01*
X25285808Y-98276095D01*
X25124095Y-98437808D01*
X24933940Y-98564865D01*
X24722651Y-98652384D01*
X24498349Y-98697000D01*
X24269651Y-98697000D01*
X24045349Y-98652384D01*
X23834060Y-98564865D01*
X23643905Y-98437808D01*
X23482192Y-98276095D01*
X23355135Y-98085940D01*
X23267616Y-97874651D01*
X23223000Y-97650349D01*
X23223000Y-97421651D01*
X23267616Y-97197349D01*
X23355135Y-96986060D01*
X23482192Y-96795905D01*
X23643905Y-96634192D01*
X23834060Y-96507135D01*
X24045349Y-96419616D01*
X24269651Y-96375000D01*
X24498349Y-96375000D01*
X24722651Y-96419616D01*
X24722651Y-96419616D01*
G37*
G36*
X131622651Y-96419616D02*
G01*
X131833940Y-96507135D01*
X132024095Y-96634192D01*
X132185808Y-96795905D01*
X132312865Y-96986060D01*
X132400384Y-97197349D01*
X132445000Y-97421651D01*
X132445000Y-97650349D01*
X132400384Y-97874651D01*
X132312865Y-98085940D01*
X132185808Y-98276095D01*
X132024095Y-98437808D01*
X131833940Y-98564865D01*
X131622651Y-98652384D01*
X131398349Y-98697000D01*
X131169651Y-98697000D01*
X130945349Y-98652384D01*
X130734060Y-98564865D01*
X130543905Y-98437808D01*
X130382192Y-98276095D01*
X130255135Y-98085940D01*
X130167616Y-97874651D01*
X130123000Y-97650349D01*
X130123000Y-97421651D01*
X130167616Y-97197349D01*
X130255135Y-96986060D01*
X130382192Y-96795905D01*
X130543905Y-96634192D01*
X130734060Y-96507135D01*
X130945349Y-96419616D01*
X131169651Y-96375000D01*
X131398349Y-96375000D01*
X131622651Y-96419616D01*
X131622651Y-96419616D01*
G37*
G36*
X30022651Y-96419616D02*
G01*
X30233940Y-96507135D01*
X30424095Y-96634192D01*
X30585808Y-96795905D01*
X30712865Y-96986060D01*
X30800384Y-97197349D01*
X30845000Y-97421651D01*
X30845000Y-97650349D01*
X30800384Y-97874651D01*
X30712865Y-98085940D01*
X30585808Y-98276095D01*
X30424095Y-98437808D01*
X30233940Y-98564865D01*
X30022651Y-98652384D01*
X29798349Y-98697000D01*
X29569651Y-98697000D01*
X29345349Y-98652384D01*
X29134060Y-98564865D01*
X28943905Y-98437808D01*
X28782192Y-98276095D01*
X28655135Y-98085940D01*
X28567616Y-97874651D01*
X28523000Y-97650349D01*
X28523000Y-97421651D01*
X28567616Y-97197349D01*
X28655135Y-96986060D01*
X28782192Y-96795905D01*
X28943905Y-96634192D01*
X29134060Y-96507135D01*
X29345349Y-96419616D01*
X29569651Y-96375000D01*
X29798349Y-96375000D01*
X30022651Y-96419616D01*
X30022651Y-96419616D01*
G37*
G36*
X126322651Y-96419616D02*
G01*
X126533940Y-96507135D01*
X126724095Y-96634192D01*
X126885808Y-96795905D01*
X127012865Y-96986060D01*
X127100384Y-97197349D01*
X127145000Y-97421651D01*
X127145000Y-97650349D01*
X127100384Y-97874651D01*
X127012865Y-98085940D01*
X126885808Y-98276095D01*
X126724095Y-98437808D01*
X126533940Y-98564865D01*
X126322651Y-98652384D01*
X126098349Y-98697000D01*
X125869651Y-98697000D01*
X125645349Y-98652384D01*
X125434060Y-98564865D01*
X125243905Y-98437808D01*
X125082192Y-98276095D01*
X124955135Y-98085940D01*
X124867616Y-97874651D01*
X124823000Y-97650349D01*
X124823000Y-97421651D01*
X124867616Y-97197349D01*
X124955135Y-96986060D01*
X125082192Y-96795905D01*
X125243905Y-96634192D01*
X125434060Y-96507135D01*
X125645349Y-96419616D01*
X125869651Y-96375000D01*
X126098349Y-96375000D01*
X126322651Y-96419616D01*
X126322651Y-96419616D01*
G37*
G36*
X121022651Y-96419616D02*
G01*
X121233940Y-96507135D01*
X121424095Y-96634192D01*
X121585808Y-96795905D01*
X121712865Y-96986060D01*
X121800384Y-97197349D01*
X121845000Y-97421651D01*
X121845000Y-97650349D01*
X121800384Y-97874651D01*
X121712865Y-98085940D01*
X121585808Y-98276095D01*
X121424095Y-98437808D01*
X121233940Y-98564865D01*
X121022651Y-98652384D01*
X120798349Y-98697000D01*
X120569651Y-98697000D01*
X120345349Y-98652384D01*
X120134060Y-98564865D01*
X119943905Y-98437808D01*
X119782192Y-98276095D01*
X119655135Y-98085940D01*
X119567616Y-97874651D01*
X119523000Y-97650349D01*
X119523000Y-97421651D01*
X119567616Y-97197349D01*
X119655135Y-96986060D01*
X119782192Y-96795905D01*
X119943905Y-96634192D01*
X120134060Y-96507135D01*
X120345349Y-96419616D01*
X120569651Y-96375000D01*
X120798349Y-96375000D01*
X121022651Y-96419616D01*
X121022651Y-96419616D01*
G37*
G36*
X75522651Y-96419616D02*
G01*
X75733940Y-96507135D01*
X75924095Y-96634192D01*
X76085808Y-96795905D01*
X76212865Y-96986060D01*
X76300384Y-97197349D01*
X76345000Y-97421651D01*
X76345000Y-97650349D01*
X76300384Y-97874651D01*
X76212865Y-98085940D01*
X76085808Y-98276095D01*
X75924095Y-98437808D01*
X75733940Y-98564865D01*
X75522651Y-98652384D01*
X75298349Y-98697000D01*
X75069651Y-98697000D01*
X74845349Y-98652384D01*
X74634060Y-98564865D01*
X74443905Y-98437808D01*
X74282192Y-98276095D01*
X74155135Y-98085940D01*
X74067616Y-97874651D01*
X74023000Y-97650349D01*
X74023000Y-97421651D01*
X74067616Y-97197349D01*
X74155135Y-96986060D01*
X74282192Y-96795905D01*
X74443905Y-96634192D01*
X74634060Y-96507135D01*
X74845349Y-96419616D01*
X75069651Y-96375000D01*
X75298349Y-96375000D01*
X75522651Y-96419616D01*
X75522651Y-96419616D01*
G37*
G36*
X182422651Y-96419616D02*
G01*
X182633940Y-96507135D01*
X182824095Y-96634192D01*
X182985808Y-96795905D01*
X183112865Y-96986060D01*
X183200384Y-97197349D01*
X183245000Y-97421651D01*
X183245000Y-97650349D01*
X183200384Y-97874651D01*
X183112865Y-98085940D01*
X182985808Y-98276095D01*
X182824095Y-98437808D01*
X182633940Y-98564865D01*
X182422651Y-98652384D01*
X182198349Y-98697000D01*
X181969651Y-98697000D01*
X181745349Y-98652384D01*
X181534060Y-98564865D01*
X181343905Y-98437808D01*
X181182192Y-98276095D01*
X181055135Y-98085940D01*
X180967616Y-97874651D01*
X180923000Y-97650349D01*
X180923000Y-97421651D01*
X180967616Y-97197349D01*
X181055135Y-96986060D01*
X181182192Y-96795905D01*
X181343905Y-96634192D01*
X181534060Y-96507135D01*
X181745349Y-96419616D01*
X181969651Y-96375000D01*
X182198349Y-96375000D01*
X182422651Y-96419616D01*
X182422651Y-96419616D01*
G37*
G36*
X80822651Y-96419616D02*
G01*
X81033940Y-96507135D01*
X81224095Y-96634192D01*
X81385808Y-96795905D01*
X81512865Y-96986060D01*
X81600384Y-97197349D01*
X81645000Y-97421651D01*
X81645000Y-97650349D01*
X81600384Y-97874651D01*
X81512865Y-98085940D01*
X81385808Y-98276095D01*
X81224095Y-98437808D01*
X81033940Y-98564865D01*
X80822651Y-98652384D01*
X80598349Y-98697000D01*
X80369651Y-98697000D01*
X80145349Y-98652384D01*
X79934060Y-98564865D01*
X79743905Y-98437808D01*
X79582192Y-98276095D01*
X79455135Y-98085940D01*
X79367616Y-97874651D01*
X79323000Y-97650349D01*
X79323000Y-97421651D01*
X79367616Y-97197349D01*
X79455135Y-96986060D01*
X79582192Y-96795905D01*
X79743905Y-96634192D01*
X79934060Y-96507135D01*
X80145349Y-96419616D01*
X80369651Y-96375000D01*
X80598349Y-96375000D01*
X80822651Y-96419616D01*
X80822651Y-96419616D01*
G37*
G36*
X177122651Y-96419616D02*
G01*
X177333940Y-96507135D01*
X177524095Y-96634192D01*
X177685808Y-96795905D01*
X177812865Y-96986060D01*
X177900384Y-97197349D01*
X177945000Y-97421651D01*
X177945000Y-97650349D01*
X177900384Y-97874651D01*
X177812865Y-98085940D01*
X177685808Y-98276095D01*
X177524095Y-98437808D01*
X177333940Y-98564865D01*
X177122651Y-98652384D01*
X176898349Y-98697000D01*
X176669651Y-98697000D01*
X176445349Y-98652384D01*
X176234060Y-98564865D01*
X176043905Y-98437808D01*
X175882192Y-98276095D01*
X175755135Y-98085940D01*
X175667616Y-97874651D01*
X175623000Y-97650349D01*
X175623000Y-97421651D01*
X175667616Y-97197349D01*
X175755135Y-96986060D01*
X175882192Y-96795905D01*
X176043905Y-96634192D01*
X176234060Y-96507135D01*
X176445349Y-96419616D01*
X176669651Y-96375000D01*
X176898349Y-96375000D01*
X177122651Y-96419616D01*
X177122651Y-96419616D01*
G37*
G36*
X171822651Y-96419616D02*
G01*
X172033940Y-96507135D01*
X172224095Y-96634192D01*
X172385808Y-96795905D01*
X172512865Y-96986060D01*
X172600384Y-97197349D01*
X172645000Y-97421651D01*
X172645000Y-97650349D01*
X172600384Y-97874651D01*
X172512865Y-98085940D01*
X172385808Y-98276095D01*
X172224095Y-98437808D01*
X172033940Y-98564865D01*
X171822651Y-98652384D01*
X171598349Y-98697000D01*
X171369651Y-98697000D01*
X171145349Y-98652384D01*
X170934060Y-98564865D01*
X170743905Y-98437808D01*
X170582192Y-98276095D01*
X170455135Y-98085940D01*
X170367616Y-97874651D01*
X170323000Y-97650349D01*
X170323000Y-97421651D01*
X170367616Y-97197349D01*
X170455135Y-96986060D01*
X170582192Y-96795905D01*
X170743905Y-96634192D01*
X170934060Y-96507135D01*
X171145349Y-96419616D01*
X171369651Y-96375000D01*
X171598349Y-96375000D01*
X171822651Y-96419616D01*
X171822651Y-96419616D01*
G37*
G36*
X233222651Y-96419616D02*
G01*
X233433940Y-96507135D01*
X233624095Y-96634192D01*
X233785808Y-96795905D01*
X233912865Y-96986060D01*
X234000384Y-97197349D01*
X234045000Y-97421651D01*
X234045000Y-97650349D01*
X234000384Y-97874651D01*
X233912865Y-98085940D01*
X233785808Y-98276095D01*
X233624095Y-98437808D01*
X233433940Y-98564865D01*
X233222651Y-98652384D01*
X232998349Y-98697000D01*
X232769651Y-98697000D01*
X232545349Y-98652384D01*
X232334060Y-98564865D01*
X232143905Y-98437808D01*
X231982192Y-98276095D01*
X231855135Y-98085940D01*
X231767616Y-97874651D01*
X231723000Y-97650349D01*
X231723000Y-97421651D01*
X231767616Y-97197349D01*
X231855135Y-96986060D01*
X231982192Y-96795905D01*
X232143905Y-96634192D01*
X232334060Y-96507135D01*
X232545349Y-96419616D01*
X232769651Y-96375000D01*
X232998349Y-96375000D01*
X233222651Y-96419616D01*
X233222651Y-96419616D01*
G37*
G36*
X227922651Y-96419616D02*
G01*
X228133940Y-96507135D01*
X228324095Y-96634192D01*
X228485808Y-96795905D01*
X228612865Y-96986060D01*
X228700384Y-97197349D01*
X228745000Y-97421651D01*
X228745000Y-97650349D01*
X228700384Y-97874651D01*
X228612865Y-98085940D01*
X228485808Y-98276095D01*
X228324095Y-98437808D01*
X228133940Y-98564865D01*
X227922651Y-98652384D01*
X227698349Y-98697000D01*
X227469651Y-98697000D01*
X227245349Y-98652384D01*
X227034060Y-98564865D01*
X226843905Y-98437808D01*
X226682192Y-98276095D01*
X226555135Y-98085940D01*
X226467616Y-97874651D01*
X226423000Y-97650349D01*
X226423000Y-97421651D01*
X226467616Y-97197349D01*
X226555135Y-96986060D01*
X226682192Y-96795905D01*
X226843905Y-96634192D01*
X227034060Y-96507135D01*
X227245349Y-96419616D01*
X227469651Y-96375000D01*
X227698349Y-96375000D01*
X227922651Y-96419616D01*
X227922651Y-96419616D01*
G37*
G36*
X222622651Y-96419616D02*
G01*
X222833940Y-96507135D01*
X223024095Y-96634192D01*
X223185808Y-96795905D01*
X223312865Y-96986060D01*
X223400384Y-97197349D01*
X223445000Y-97421651D01*
X223445000Y-97650349D01*
X223400384Y-97874651D01*
X223312865Y-98085940D01*
X223185808Y-98276095D01*
X223024095Y-98437808D01*
X222833940Y-98564865D01*
X222622651Y-98652384D01*
X222398349Y-98697000D01*
X222169651Y-98697000D01*
X221945349Y-98652384D01*
X221734060Y-98564865D01*
X221543905Y-98437808D01*
X221382192Y-98276095D01*
X221255135Y-98085940D01*
X221167616Y-97874651D01*
X221123000Y-97650349D01*
X221123000Y-97421651D01*
X221167616Y-97197349D01*
X221255135Y-96986060D01*
X221382192Y-96795905D01*
X221543905Y-96634192D01*
X221734060Y-96507135D01*
X221945349Y-96419616D01*
X222169651Y-96375000D01*
X222398349Y-96375000D01*
X222622651Y-96419616D01*
X222622651Y-96419616D01*
G37*
G36*
X284022651Y-96419616D02*
G01*
X284233940Y-96507135D01*
X284424095Y-96634192D01*
X284585808Y-96795905D01*
X284712865Y-96986060D01*
X284800384Y-97197349D01*
X284845000Y-97421651D01*
X284845000Y-97650349D01*
X284800384Y-97874651D01*
X284712865Y-98085940D01*
X284585808Y-98276095D01*
X284424095Y-98437808D01*
X284233940Y-98564865D01*
X284022651Y-98652384D01*
X283798349Y-98697000D01*
X283569651Y-98697000D01*
X283345349Y-98652384D01*
X283134060Y-98564865D01*
X282943905Y-98437808D01*
X282782192Y-98276095D01*
X282655135Y-98085940D01*
X282567616Y-97874651D01*
X282523000Y-97650349D01*
X282523000Y-97421651D01*
X282567616Y-97197349D01*
X282655135Y-96986060D01*
X282782192Y-96795905D01*
X282943905Y-96634192D01*
X283134060Y-96507135D01*
X283345349Y-96419616D01*
X283569651Y-96375000D01*
X283798349Y-96375000D01*
X284022651Y-96419616D01*
X284022651Y-96419616D01*
G37*
G36*
X278722651Y-96419616D02*
G01*
X278933940Y-96507135D01*
X279124095Y-96634192D01*
X279285808Y-96795905D01*
X279412865Y-96986060D01*
X279500384Y-97197349D01*
X279545000Y-97421651D01*
X279545000Y-97650349D01*
X279500384Y-97874651D01*
X279412865Y-98085940D01*
X279285808Y-98276095D01*
X279124095Y-98437808D01*
X278933940Y-98564865D01*
X278722651Y-98652384D01*
X278498349Y-98697000D01*
X278269651Y-98697000D01*
X278045349Y-98652384D01*
X277834060Y-98564865D01*
X277643905Y-98437808D01*
X277482192Y-98276095D01*
X277355135Y-98085940D01*
X277267616Y-97874651D01*
X277223000Y-97650349D01*
X277223000Y-97421651D01*
X277267616Y-97197349D01*
X277355135Y-96986060D01*
X277482192Y-96795905D01*
X277643905Y-96634192D01*
X277834060Y-96507135D01*
X278045349Y-96419616D01*
X278269651Y-96375000D01*
X278498349Y-96375000D01*
X278722651Y-96419616D01*
X278722651Y-96419616D01*
G37*
G36*
X273422651Y-96419616D02*
G01*
X273633940Y-96507135D01*
X273824095Y-96634192D01*
X273985808Y-96795905D01*
X274112865Y-96986060D01*
X274200384Y-97197349D01*
X274245000Y-97421651D01*
X274245000Y-97650349D01*
X274200384Y-97874651D01*
X274112865Y-98085940D01*
X273985808Y-98276095D01*
X273824095Y-98437808D01*
X273633940Y-98564865D01*
X273422651Y-98652384D01*
X273198349Y-98697000D01*
X272969651Y-98697000D01*
X272745349Y-98652384D01*
X272534060Y-98564865D01*
X272343905Y-98437808D01*
X272182192Y-98276095D01*
X272055135Y-98085940D01*
X271967616Y-97874651D01*
X271923000Y-97650349D01*
X271923000Y-97421651D01*
X271967616Y-97197349D01*
X272055135Y-96986060D01*
X272182192Y-96795905D01*
X272343905Y-96634192D01*
X272534060Y-96507135D01*
X272745349Y-96419616D01*
X272969651Y-96375000D01*
X273198349Y-96375000D01*
X273422651Y-96419616D01*
X273422651Y-96419616D01*
G37*
G36*
X75522651Y-91619616D02*
G01*
X75733940Y-91707135D01*
X75924095Y-91834192D01*
X76085808Y-91995905D01*
X76212865Y-92186060D01*
X76300384Y-92397349D01*
X76345000Y-92621651D01*
X76345000Y-92850349D01*
X76300384Y-93074651D01*
X76212865Y-93285940D01*
X76085808Y-93476095D01*
X75924095Y-93637808D01*
X75733940Y-93764865D01*
X75522651Y-93852384D01*
X75298349Y-93897000D01*
X75069651Y-93897000D01*
X74845349Y-93852384D01*
X74634060Y-93764865D01*
X74443905Y-93637808D01*
X74282192Y-93476095D01*
X74155135Y-93285940D01*
X74067616Y-93074651D01*
X74023000Y-92850349D01*
X74023000Y-92621651D01*
X74067616Y-92397349D01*
X74155135Y-92186060D01*
X74282192Y-91995905D01*
X74443905Y-91834192D01*
X74634060Y-91707135D01*
X74845349Y-91619616D01*
X75069651Y-91575000D01*
X75298349Y-91575000D01*
X75522651Y-91619616D01*
X75522651Y-91619616D01*
G37*
G36*
X284022651Y-91619616D02*
G01*
X284233940Y-91707135D01*
X284424095Y-91834192D01*
X284585808Y-91995905D01*
X284712865Y-92186060D01*
X284800384Y-92397349D01*
X284845000Y-92621651D01*
X284845000Y-92850349D01*
X284800384Y-93074651D01*
X284712865Y-93285940D01*
X284585808Y-93476095D01*
X284424095Y-93637808D01*
X284233940Y-93764865D01*
X284022651Y-93852384D01*
X283798349Y-93897000D01*
X283569651Y-93897000D01*
X283345349Y-93852384D01*
X283134060Y-93764865D01*
X282943905Y-93637808D01*
X282782192Y-93476095D01*
X282655135Y-93285940D01*
X282567616Y-93074651D01*
X282523000Y-92850349D01*
X282523000Y-92621651D01*
X282567616Y-92397349D01*
X282655135Y-92186060D01*
X282782192Y-91995905D01*
X282943905Y-91834192D01*
X283134060Y-91707135D01*
X283345349Y-91619616D01*
X283569651Y-91575000D01*
X283798349Y-91575000D01*
X284022651Y-91619616D01*
X284022651Y-91619616D01*
G37*
G36*
X126322651Y-91619616D02*
G01*
X126533940Y-91707135D01*
X126724095Y-91834192D01*
X126885808Y-91995905D01*
X127012865Y-92186060D01*
X127100384Y-92397349D01*
X127145000Y-92621651D01*
X127145000Y-92850349D01*
X127100384Y-93074651D01*
X127012865Y-93285940D01*
X126885808Y-93476095D01*
X126724095Y-93637808D01*
X126533940Y-93764865D01*
X126322651Y-93852384D01*
X126098349Y-93897000D01*
X125869651Y-93897000D01*
X125645349Y-93852384D01*
X125434060Y-93764865D01*
X125243905Y-93637808D01*
X125082192Y-93476095D01*
X124955135Y-93285940D01*
X124867616Y-93074651D01*
X124823000Y-92850349D01*
X124823000Y-92621651D01*
X124867616Y-92397349D01*
X124955135Y-92186060D01*
X125082192Y-91995905D01*
X125243905Y-91834192D01*
X125434060Y-91707135D01*
X125645349Y-91619616D01*
X125869651Y-91575000D01*
X126098349Y-91575000D01*
X126322651Y-91619616D01*
X126322651Y-91619616D01*
G37*
G36*
X182422651Y-91619616D02*
G01*
X182633940Y-91707135D01*
X182824095Y-91834192D01*
X182985808Y-91995905D01*
X183112865Y-92186060D01*
X183200384Y-92397349D01*
X183245000Y-92621651D01*
X183245000Y-92850349D01*
X183200384Y-93074651D01*
X183112865Y-93285940D01*
X182985808Y-93476095D01*
X182824095Y-93637808D01*
X182633940Y-93764865D01*
X182422651Y-93852384D01*
X182198349Y-93897000D01*
X181969651Y-93897000D01*
X181745349Y-93852384D01*
X181534060Y-93764865D01*
X181343905Y-93637808D01*
X181182192Y-93476095D01*
X181055135Y-93285940D01*
X180967616Y-93074651D01*
X180923000Y-92850349D01*
X180923000Y-92621651D01*
X180967616Y-92397349D01*
X181055135Y-92186060D01*
X181182192Y-91995905D01*
X181343905Y-91834192D01*
X181534060Y-91707135D01*
X181745349Y-91619616D01*
X181969651Y-91575000D01*
X182198349Y-91575000D01*
X182422651Y-91619616D01*
X182422651Y-91619616D01*
G37*
G36*
X177122651Y-91619616D02*
G01*
X177333940Y-91707135D01*
X177524095Y-91834192D01*
X177685808Y-91995905D01*
X177812865Y-92186060D01*
X177900384Y-92397349D01*
X177945000Y-92621651D01*
X177945000Y-92850349D01*
X177900384Y-93074651D01*
X177812865Y-93285940D01*
X177685808Y-93476095D01*
X177524095Y-93637808D01*
X177333940Y-93764865D01*
X177122651Y-93852384D01*
X176898349Y-93897000D01*
X176669651Y-93897000D01*
X176445349Y-93852384D01*
X176234060Y-93764865D01*
X176043905Y-93637808D01*
X175882192Y-93476095D01*
X175755135Y-93285940D01*
X175667616Y-93074651D01*
X175623000Y-92850349D01*
X175623000Y-92621651D01*
X175667616Y-92397349D01*
X175755135Y-92186060D01*
X175882192Y-91995905D01*
X176043905Y-91834192D01*
X176234060Y-91707135D01*
X176445349Y-91619616D01*
X176669651Y-91575000D01*
X176898349Y-91575000D01*
X177122651Y-91619616D01*
X177122651Y-91619616D01*
G37*
G36*
X121022651Y-91619616D02*
G01*
X121233940Y-91707135D01*
X121424095Y-91834192D01*
X121585808Y-91995905D01*
X121712865Y-92186060D01*
X121800384Y-92397349D01*
X121845000Y-92621651D01*
X121845000Y-92850349D01*
X121800384Y-93074651D01*
X121712865Y-93285940D01*
X121585808Y-93476095D01*
X121424095Y-93637808D01*
X121233940Y-93764865D01*
X121022651Y-93852384D01*
X120798349Y-93897000D01*
X120569651Y-93897000D01*
X120345349Y-93852384D01*
X120134060Y-93764865D01*
X119943905Y-93637808D01*
X119782192Y-93476095D01*
X119655135Y-93285940D01*
X119567616Y-93074651D01*
X119523000Y-92850349D01*
X119523000Y-92621651D01*
X119567616Y-92397349D01*
X119655135Y-92186060D01*
X119782192Y-91995905D01*
X119943905Y-91834192D01*
X120134060Y-91707135D01*
X120345349Y-91619616D01*
X120569651Y-91575000D01*
X120798349Y-91575000D01*
X121022651Y-91619616D01*
X121022651Y-91619616D01*
G37*
G36*
X171822651Y-91619616D02*
G01*
X172033940Y-91707135D01*
X172224095Y-91834192D01*
X172385808Y-91995905D01*
X172512865Y-92186060D01*
X172600384Y-92397349D01*
X172645000Y-92621651D01*
X172645000Y-92850349D01*
X172600384Y-93074651D01*
X172512865Y-93285940D01*
X172385808Y-93476095D01*
X172224095Y-93637808D01*
X172033940Y-93764865D01*
X171822651Y-93852384D01*
X171598349Y-93897000D01*
X171369651Y-93897000D01*
X171145349Y-93852384D01*
X170934060Y-93764865D01*
X170743905Y-93637808D01*
X170582192Y-93476095D01*
X170455135Y-93285940D01*
X170367616Y-93074651D01*
X170323000Y-92850349D01*
X170323000Y-92621651D01*
X170367616Y-92397349D01*
X170455135Y-92186060D01*
X170582192Y-91995905D01*
X170743905Y-91834192D01*
X170934060Y-91707135D01*
X171145349Y-91619616D01*
X171369651Y-91575000D01*
X171598349Y-91575000D01*
X171822651Y-91619616D01*
X171822651Y-91619616D01*
G37*
G36*
X131622651Y-91619616D02*
G01*
X131833940Y-91707135D01*
X132024095Y-91834192D01*
X132185808Y-91995905D01*
X132312865Y-92186060D01*
X132400384Y-92397349D01*
X132445000Y-92621651D01*
X132445000Y-92850349D01*
X132400384Y-93074651D01*
X132312865Y-93285940D01*
X132185808Y-93476095D01*
X132024095Y-93637808D01*
X131833940Y-93764865D01*
X131622651Y-93852384D01*
X131398349Y-93897000D01*
X131169651Y-93897000D01*
X130945349Y-93852384D01*
X130734060Y-93764865D01*
X130543905Y-93637808D01*
X130382192Y-93476095D01*
X130255135Y-93285940D01*
X130167616Y-93074651D01*
X130123000Y-92850349D01*
X130123000Y-92621651D01*
X130167616Y-92397349D01*
X130255135Y-92186060D01*
X130382192Y-91995905D01*
X130543905Y-91834192D01*
X130734060Y-91707135D01*
X130945349Y-91619616D01*
X131169651Y-91575000D01*
X131398349Y-91575000D01*
X131622651Y-91619616D01*
X131622651Y-91619616D01*
G37*
G36*
X278722651Y-91619616D02*
G01*
X278933940Y-91707135D01*
X279124095Y-91834192D01*
X279285808Y-91995905D01*
X279412865Y-92186060D01*
X279500384Y-92397349D01*
X279545000Y-92621651D01*
X279545000Y-92850349D01*
X279500384Y-93074651D01*
X279412865Y-93285940D01*
X279285808Y-93476095D01*
X279124095Y-93637808D01*
X278933940Y-93764865D01*
X278722651Y-93852384D01*
X278498349Y-93897000D01*
X278269651Y-93897000D01*
X278045349Y-93852384D01*
X277834060Y-93764865D01*
X277643905Y-93637808D01*
X277482192Y-93476095D01*
X277355135Y-93285940D01*
X277267616Y-93074651D01*
X277223000Y-92850349D01*
X277223000Y-92621651D01*
X277267616Y-92397349D01*
X277355135Y-92186060D01*
X277482192Y-91995905D01*
X277643905Y-91834192D01*
X277834060Y-91707135D01*
X278045349Y-91619616D01*
X278269651Y-91575000D01*
X278498349Y-91575000D01*
X278722651Y-91619616D01*
X278722651Y-91619616D01*
G37*
G36*
X30022651Y-91619616D02*
G01*
X30233940Y-91707135D01*
X30424095Y-91834192D01*
X30585808Y-91995905D01*
X30712865Y-92186060D01*
X30800384Y-92397349D01*
X30845000Y-92621651D01*
X30845000Y-92850349D01*
X30800384Y-93074651D01*
X30712865Y-93285940D01*
X30585808Y-93476095D01*
X30424095Y-93637808D01*
X30233940Y-93764865D01*
X30022651Y-93852384D01*
X29798349Y-93897000D01*
X29569651Y-93897000D01*
X29345349Y-93852384D01*
X29134060Y-93764865D01*
X28943905Y-93637808D01*
X28782192Y-93476095D01*
X28655135Y-93285940D01*
X28567616Y-93074651D01*
X28523000Y-92850349D01*
X28523000Y-92621651D01*
X28567616Y-92397349D01*
X28655135Y-92186060D01*
X28782192Y-91995905D01*
X28943905Y-91834192D01*
X29134060Y-91707135D01*
X29345349Y-91619616D01*
X29569651Y-91575000D01*
X29798349Y-91575000D01*
X30022651Y-91619616D01*
X30022651Y-91619616D01*
G37*
G36*
X70222651Y-91619616D02*
G01*
X70433940Y-91707135D01*
X70624095Y-91834192D01*
X70785808Y-91995905D01*
X70912865Y-92186060D01*
X71000384Y-92397349D01*
X71045000Y-92621651D01*
X71045000Y-92850349D01*
X71000384Y-93074651D01*
X70912865Y-93285940D01*
X70785808Y-93476095D01*
X70624095Y-93637808D01*
X70433940Y-93764865D01*
X70222651Y-93852384D01*
X69998349Y-93897000D01*
X69769651Y-93897000D01*
X69545349Y-93852384D01*
X69334060Y-93764865D01*
X69143905Y-93637808D01*
X68982192Y-93476095D01*
X68855135Y-93285940D01*
X68767616Y-93074651D01*
X68723000Y-92850349D01*
X68723000Y-92621651D01*
X68767616Y-92397349D01*
X68855135Y-92186060D01*
X68982192Y-91995905D01*
X69143905Y-91834192D01*
X69334060Y-91707135D01*
X69545349Y-91619616D01*
X69769651Y-91575000D01*
X69998349Y-91575000D01*
X70222651Y-91619616D01*
X70222651Y-91619616D01*
G37*
G36*
X273422651Y-91619616D02*
G01*
X273633940Y-91707135D01*
X273824095Y-91834192D01*
X273985808Y-91995905D01*
X274112865Y-92186060D01*
X274200384Y-92397349D01*
X274245000Y-92621651D01*
X274245000Y-92850349D01*
X274200384Y-93074651D01*
X274112865Y-93285940D01*
X273985808Y-93476095D01*
X273824095Y-93637808D01*
X273633940Y-93764865D01*
X273422651Y-93852384D01*
X273198349Y-93897000D01*
X272969651Y-93897000D01*
X272745349Y-93852384D01*
X272534060Y-93764865D01*
X272343905Y-93637808D01*
X272182192Y-93476095D01*
X272055135Y-93285940D01*
X271967616Y-93074651D01*
X271923000Y-92850349D01*
X271923000Y-92621651D01*
X271967616Y-92397349D01*
X272055135Y-92186060D01*
X272182192Y-91995905D01*
X272343905Y-91834192D01*
X272534060Y-91707135D01*
X272745349Y-91619616D01*
X272969651Y-91575000D01*
X273198349Y-91575000D01*
X273422651Y-91619616D01*
X273422651Y-91619616D01*
G37*
G36*
X24722651Y-91619616D02*
G01*
X24933940Y-91707135D01*
X25124095Y-91834192D01*
X25285808Y-91995905D01*
X25412865Y-92186060D01*
X25500384Y-92397349D01*
X25545000Y-92621651D01*
X25545000Y-92850349D01*
X25500384Y-93074651D01*
X25412865Y-93285940D01*
X25285808Y-93476095D01*
X25124095Y-93637808D01*
X24933940Y-93764865D01*
X24722651Y-93852384D01*
X24498349Y-93897000D01*
X24269651Y-93897000D01*
X24045349Y-93852384D01*
X23834060Y-93764865D01*
X23643905Y-93637808D01*
X23482192Y-93476095D01*
X23355135Y-93285940D01*
X23267616Y-93074651D01*
X23223000Y-92850349D01*
X23223000Y-92621651D01*
X23267616Y-92397349D01*
X23355135Y-92186060D01*
X23482192Y-91995905D01*
X23643905Y-91834192D01*
X23834060Y-91707135D01*
X24045349Y-91619616D01*
X24269651Y-91575000D01*
X24498349Y-91575000D01*
X24722651Y-91619616D01*
X24722651Y-91619616D01*
G37*
G36*
X233222651Y-91619616D02*
G01*
X233433940Y-91707135D01*
X233624095Y-91834192D01*
X233785808Y-91995905D01*
X233912865Y-92186060D01*
X234000384Y-92397349D01*
X234045000Y-92621651D01*
X234045000Y-92850349D01*
X234000384Y-93074651D01*
X233912865Y-93285940D01*
X233785808Y-93476095D01*
X233624095Y-93637808D01*
X233433940Y-93764865D01*
X233222651Y-93852384D01*
X232998349Y-93897000D01*
X232769651Y-93897000D01*
X232545349Y-93852384D01*
X232334060Y-93764865D01*
X232143905Y-93637808D01*
X231982192Y-93476095D01*
X231855135Y-93285940D01*
X231767616Y-93074651D01*
X231723000Y-92850349D01*
X231723000Y-92621651D01*
X231767616Y-92397349D01*
X231855135Y-92186060D01*
X231982192Y-91995905D01*
X232143905Y-91834192D01*
X232334060Y-91707135D01*
X232545349Y-91619616D01*
X232769651Y-91575000D01*
X232998349Y-91575000D01*
X233222651Y-91619616D01*
X233222651Y-91619616D01*
G37*
G36*
X19422651Y-91619616D02*
G01*
X19633940Y-91707135D01*
X19824095Y-91834192D01*
X19985808Y-91995905D01*
X20112865Y-92186060D01*
X20200384Y-92397349D01*
X20245000Y-92621651D01*
X20245000Y-92850349D01*
X20200384Y-93074651D01*
X20112865Y-93285940D01*
X19985808Y-93476095D01*
X19824095Y-93637808D01*
X19633940Y-93764865D01*
X19422651Y-93852384D01*
X19198349Y-93897000D01*
X18969651Y-93897000D01*
X18745349Y-93852384D01*
X18534060Y-93764865D01*
X18343905Y-93637808D01*
X18182192Y-93476095D01*
X18055135Y-93285940D01*
X17967616Y-93074651D01*
X17923000Y-92850349D01*
X17923000Y-92621651D01*
X17967616Y-92397349D01*
X18055135Y-92186060D01*
X18182192Y-91995905D01*
X18343905Y-91834192D01*
X18534060Y-91707135D01*
X18745349Y-91619616D01*
X18969651Y-91575000D01*
X19198349Y-91575000D01*
X19422651Y-91619616D01*
X19422651Y-91619616D01*
G37*
G36*
X80822651Y-91619616D02*
G01*
X81033940Y-91707135D01*
X81224095Y-91834192D01*
X81385808Y-91995905D01*
X81512865Y-92186060D01*
X81600384Y-92397349D01*
X81645000Y-92621651D01*
X81645000Y-92850349D01*
X81600384Y-93074651D01*
X81512865Y-93285940D01*
X81385808Y-93476095D01*
X81224095Y-93637808D01*
X81033940Y-93764865D01*
X80822651Y-93852384D01*
X80598349Y-93897000D01*
X80369651Y-93897000D01*
X80145349Y-93852384D01*
X79934060Y-93764865D01*
X79743905Y-93637808D01*
X79582192Y-93476095D01*
X79455135Y-93285940D01*
X79367616Y-93074651D01*
X79323000Y-92850349D01*
X79323000Y-92621651D01*
X79367616Y-92397349D01*
X79455135Y-92186060D01*
X79582192Y-91995905D01*
X79743905Y-91834192D01*
X79934060Y-91707135D01*
X80145349Y-91619616D01*
X80369651Y-91575000D01*
X80598349Y-91575000D01*
X80822651Y-91619616D01*
X80822651Y-91619616D01*
G37*
G36*
X222622651Y-91619616D02*
G01*
X222833940Y-91707135D01*
X223024095Y-91834192D01*
X223185808Y-91995905D01*
X223312865Y-92186060D01*
X223400384Y-92397349D01*
X223445000Y-92621651D01*
X223445000Y-92850349D01*
X223400384Y-93074651D01*
X223312865Y-93285940D01*
X223185808Y-93476095D01*
X223024095Y-93637808D01*
X222833940Y-93764865D01*
X222622651Y-93852384D01*
X222398349Y-93897000D01*
X222169651Y-93897000D01*
X221945349Y-93852384D01*
X221734060Y-93764865D01*
X221543905Y-93637808D01*
X221382192Y-93476095D01*
X221255135Y-93285940D01*
X221167616Y-93074651D01*
X221123000Y-92850349D01*
X221123000Y-92621651D01*
X221167616Y-92397349D01*
X221255135Y-92186060D01*
X221382192Y-91995905D01*
X221543905Y-91834192D01*
X221734060Y-91707135D01*
X221945349Y-91619616D01*
X222169651Y-91575000D01*
X222398349Y-91575000D01*
X222622651Y-91619616D01*
X222622651Y-91619616D01*
G37*
G36*
X227922651Y-91619616D02*
G01*
X228133940Y-91707135D01*
X228324095Y-91834192D01*
X228485808Y-91995905D01*
X228612865Y-92186060D01*
X228700384Y-92397349D01*
X228745000Y-92621651D01*
X228745000Y-92850349D01*
X228700384Y-93074651D01*
X228612865Y-93285940D01*
X228485808Y-93476095D01*
X228324095Y-93637808D01*
X228133940Y-93764865D01*
X227922651Y-93852384D01*
X227698349Y-93897000D01*
X227469651Y-93897000D01*
X227245349Y-93852384D01*
X227034060Y-93764865D01*
X226843905Y-93637808D01*
X226682192Y-93476095D01*
X226555135Y-93285940D01*
X226467616Y-93074651D01*
X226423000Y-92850349D01*
X226423000Y-92621651D01*
X226467616Y-92397349D01*
X226555135Y-92186060D01*
X226682192Y-91995905D01*
X226843905Y-91834192D01*
X227034060Y-91707135D01*
X227245349Y-91619616D01*
X227469651Y-91575000D01*
X227698349Y-91575000D01*
X227922651Y-91619616D01*
X227922651Y-91619616D01*
G37*
G36*
X183607059Y-81827860D02*
G01*
X183743732Y-81884472D01*
X183866735Y-81966660D01*
X183971340Y-82071265D01*
X184004500Y-82120893D01*
X184053529Y-82194270D01*
X184110140Y-82330941D01*
X184139000Y-82476032D01*
X184139000Y-82623968D01*
X184110140Y-82769059D01*
X184092263Y-82812219D01*
X184053528Y-82905732D01*
X183971340Y-83028735D01*
X183866735Y-83133340D01*
X183743732Y-83215528D01*
X183743731Y-83215529D01*
X183743730Y-83215529D01*
X183607059Y-83272140D01*
X183461968Y-83301000D01*
X183314032Y-83301000D01*
X183168941Y-83272140D01*
X183032270Y-83215529D01*
X183032269Y-83215529D01*
X183032268Y-83215528D01*
X182909265Y-83133340D01*
X182804660Y-83028735D01*
X182722472Y-82905732D01*
X182683738Y-82812219D01*
X182665860Y-82769059D01*
X182637000Y-82623968D01*
X182637000Y-82476032D01*
X182665860Y-82330941D01*
X182722471Y-82194270D01*
X182771500Y-82120893D01*
X182804660Y-82071265D01*
X182909265Y-81966660D01*
X183032268Y-81884472D01*
X183168941Y-81827860D01*
X183314032Y-81799000D01*
X183461968Y-81799000D01*
X183607059Y-81827860D01*
X183607059Y-81827860D01*
G37*
G36*
X228535000Y-83247000D02*
G01*
X226633000Y-83247000D01*
X226633000Y-81345000D01*
X228535000Y-81345000D01*
X228535000Y-83247000D01*
X228535000Y-83247000D01*
G37*
G36*
X177735000Y-83247000D02*
G01*
X175833000Y-83247000D01*
X175833000Y-81345000D01*
X177735000Y-81345000D01*
X177735000Y-83247000D01*
X177735000Y-83247000D01*
G37*
G36*
X279462000Y-83247000D02*
G01*
X277560000Y-83247000D01*
X277560000Y-81345000D01*
X279462000Y-81345000D01*
X279462000Y-83247000D01*
X279462000Y-83247000D01*
G37*
G36*
X126808000Y-83247000D02*
G01*
X124906000Y-83247000D01*
X124906000Y-81345000D01*
X126808000Y-81345000D01*
X126808000Y-83247000D01*
X126808000Y-83247000D01*
G37*
G36*
X76135000Y-83247000D02*
G01*
X74233000Y-83247000D01*
X74233000Y-81345000D01*
X76135000Y-81345000D01*
X76135000Y-83247000D01*
X76135000Y-83247000D01*
G37*
G36*
X25335000Y-83247000D02*
G01*
X23433000Y-83247000D01*
X23433000Y-81345000D01*
X25335000Y-81345000D01*
X25335000Y-83247000D01*
X25335000Y-83247000D01*
G37*
G36*
X287112059Y-81573860D02*
G01*
X287248732Y-81630472D01*
X287371735Y-81712660D01*
X287476340Y-81817265D01*
X287558528Y-81940268D01*
X287615140Y-82076941D01*
X287644000Y-82222033D01*
X287644000Y-82369967D01*
X287615140Y-82515059D01*
X287558528Y-82651732D01*
X287476340Y-82774735D01*
X287371735Y-82879340D01*
X287248732Y-82961528D01*
X287248731Y-82961529D01*
X287248730Y-82961529D01*
X287112059Y-83018140D01*
X286966968Y-83047000D01*
X286819032Y-83047000D01*
X286673941Y-83018140D01*
X286537270Y-82961529D01*
X286537269Y-82961529D01*
X286537268Y-82961528D01*
X286414265Y-82879340D01*
X286309660Y-82774735D01*
X286227472Y-82651732D01*
X286170860Y-82515059D01*
X286142000Y-82369967D01*
X286142000Y-82222033D01*
X286170860Y-82076941D01*
X286227472Y-81940268D01*
X286309660Y-81817265D01*
X286414265Y-81712660D01*
X286537268Y-81630472D01*
X286673941Y-81573860D01*
X286819032Y-81545000D01*
X286966968Y-81545000D01*
X287112059Y-81573860D01*
X287112059Y-81573860D01*
G37*
G36*
X236439059Y-81573860D02*
G01*
X236575732Y-81630472D01*
X236698735Y-81712660D01*
X236803340Y-81817265D01*
X236885528Y-81940268D01*
X236942140Y-82076941D01*
X236971000Y-82222033D01*
X236971000Y-82369967D01*
X236942140Y-82515059D01*
X236885528Y-82651732D01*
X236803340Y-82774735D01*
X236698735Y-82879340D01*
X236575732Y-82961528D01*
X236575731Y-82961529D01*
X236575730Y-82961529D01*
X236439059Y-83018140D01*
X236293968Y-83047000D01*
X236146032Y-83047000D01*
X236000941Y-83018140D01*
X235864270Y-82961529D01*
X235864269Y-82961529D01*
X235864268Y-82961528D01*
X235741265Y-82879340D01*
X235636660Y-82774735D01*
X235554472Y-82651732D01*
X235497860Y-82515059D01*
X235469000Y-82369967D01*
X235469000Y-82222033D01*
X235497860Y-82076941D01*
X235554472Y-81940268D01*
X235636660Y-81817265D01*
X235741265Y-81712660D01*
X235864268Y-81630472D01*
X236000941Y-81573860D01*
X236146032Y-81545000D01*
X236293968Y-81545000D01*
X236439059Y-81573860D01*
X236439059Y-81573860D01*
G37*
G36*
X133823059Y-81573860D02*
G01*
X133959732Y-81630472D01*
X134082735Y-81712660D01*
X134187340Y-81817265D01*
X134269528Y-81940268D01*
X134326140Y-82076941D01*
X134355000Y-82222033D01*
X134355000Y-82369967D01*
X134326140Y-82515059D01*
X134269528Y-82651732D01*
X134187340Y-82774735D01*
X134082735Y-82879340D01*
X133959732Y-82961528D01*
X133959731Y-82961529D01*
X133959730Y-82961529D01*
X133823059Y-83018140D01*
X133677968Y-83047000D01*
X133530032Y-83047000D01*
X133384941Y-83018140D01*
X133248270Y-82961529D01*
X133248269Y-82961529D01*
X133248268Y-82961528D01*
X133125265Y-82879340D01*
X133020660Y-82774735D01*
X132938472Y-82651732D01*
X132881860Y-82515059D01*
X132853000Y-82369967D01*
X132853000Y-82222033D01*
X132881860Y-82076941D01*
X132938472Y-81940268D01*
X133020660Y-81817265D01*
X133125265Y-81712660D01*
X133248268Y-81630472D01*
X133384941Y-81573860D01*
X133530032Y-81545000D01*
X133677968Y-81545000D01*
X133823059Y-81573860D01*
X133823059Y-81573860D01*
G37*
G36*
X84293059Y-81573860D02*
G01*
X84429732Y-81630472D01*
X84552735Y-81712660D01*
X84657340Y-81817265D01*
X84739528Y-81940268D01*
X84796140Y-82076941D01*
X84825000Y-82222033D01*
X84825000Y-82369967D01*
X84796140Y-82515059D01*
X84739528Y-82651732D01*
X84657340Y-82774735D01*
X84552735Y-82879340D01*
X84429732Y-82961528D01*
X84429731Y-82961529D01*
X84429730Y-82961529D01*
X84293059Y-83018140D01*
X84147968Y-83047000D01*
X84000032Y-83047000D01*
X83854941Y-83018140D01*
X83718270Y-82961529D01*
X83718269Y-82961529D01*
X83718268Y-82961528D01*
X83595265Y-82879340D01*
X83490660Y-82774735D01*
X83408472Y-82651732D01*
X83351860Y-82515059D01*
X83323000Y-82369967D01*
X83323000Y-82222033D01*
X83351860Y-82076941D01*
X83408472Y-81940268D01*
X83490660Y-81817265D01*
X83595265Y-81712660D01*
X83718268Y-81630472D01*
X83854941Y-81573860D01*
X84000032Y-81545000D01*
X84147968Y-81545000D01*
X84293059Y-81573860D01*
X84293059Y-81573860D01*
G37*
G36*
X34763059Y-81573860D02*
G01*
X34899732Y-81630472D01*
X35022735Y-81712660D01*
X35127340Y-81817265D01*
X35209528Y-81940268D01*
X35266140Y-82076941D01*
X35295000Y-82222033D01*
X35295000Y-82369967D01*
X35266140Y-82515059D01*
X35209528Y-82651732D01*
X35127340Y-82774735D01*
X35022735Y-82879340D01*
X34899732Y-82961528D01*
X34899731Y-82961529D01*
X34899730Y-82961529D01*
X34763059Y-83018140D01*
X34617968Y-83047000D01*
X34470032Y-83047000D01*
X34324941Y-83018140D01*
X34188270Y-82961529D01*
X34188269Y-82961529D01*
X34188268Y-82961528D01*
X34065265Y-82879340D01*
X33960660Y-82774735D01*
X33878472Y-82651732D01*
X33821860Y-82515059D01*
X33793000Y-82369967D01*
X33793000Y-82222033D01*
X33821860Y-82076941D01*
X33878472Y-81940268D01*
X33960660Y-81817265D01*
X34065265Y-81712660D01*
X34188268Y-81630472D01*
X34324941Y-81573860D01*
X34470032Y-81545000D01*
X34617968Y-81545000D01*
X34763059Y-81573860D01*
X34763059Y-81573860D01*
G37*
G36*
X147172642Y-81271781D02*
G01*
X147318414Y-81332162D01*
X147318416Y-81332163D01*
X147449608Y-81419822D01*
X147561178Y-81531392D01*
X147648837Y-81662584D01*
X147648838Y-81662586D01*
X147709219Y-81808358D01*
X147740000Y-81963107D01*
X147740000Y-82120893D01*
X147709219Y-82275642D01*
X147648838Y-82421414D01*
X147648837Y-82421416D01*
X147561178Y-82552608D01*
X147449608Y-82664178D01*
X147318416Y-82751837D01*
X147318415Y-82751838D01*
X147318414Y-82751838D01*
X147172642Y-82812219D01*
X147017893Y-82843000D01*
X146860107Y-82843000D01*
X146705358Y-82812219D01*
X146559586Y-82751838D01*
X146559585Y-82751838D01*
X146559584Y-82751837D01*
X146428392Y-82664178D01*
X146316822Y-82552608D01*
X146229163Y-82421416D01*
X146229162Y-82421414D01*
X146168781Y-82275642D01*
X146138000Y-82120893D01*
X146138000Y-81963107D01*
X146168781Y-81808358D01*
X146229162Y-81662586D01*
X146229163Y-81662584D01*
X146316822Y-81531392D01*
X146428392Y-81419822D01*
X146559584Y-81332163D01*
X146559586Y-81332162D01*
X146705358Y-81271781D01*
X146860107Y-81241000D01*
X147017893Y-81241000D01*
X147172642Y-81271781D01*
X147172642Y-81271781D01*
G37*
G36*
X154792642Y-81271781D02*
G01*
X154938414Y-81332162D01*
X154938416Y-81332163D01*
X155069608Y-81419822D01*
X155181178Y-81531392D01*
X155268837Y-81662584D01*
X155268838Y-81662586D01*
X155329219Y-81808358D01*
X155360000Y-81963107D01*
X155360000Y-82120893D01*
X155329219Y-82275642D01*
X155268838Y-82421414D01*
X155268837Y-82421416D01*
X155181178Y-82552608D01*
X155069608Y-82664178D01*
X154938416Y-82751837D01*
X154938415Y-82751838D01*
X154938414Y-82751838D01*
X154792642Y-82812219D01*
X154637893Y-82843000D01*
X154480107Y-82843000D01*
X154325358Y-82812219D01*
X154179586Y-82751838D01*
X154179585Y-82751838D01*
X154179584Y-82751837D01*
X154048392Y-82664178D01*
X153936822Y-82552608D01*
X153849163Y-82421416D01*
X153849162Y-82421414D01*
X153788781Y-82275642D01*
X153758000Y-82120893D01*
X153758000Y-81963107D01*
X153788781Y-81808358D01*
X153849162Y-81662586D01*
X153849163Y-81662584D01*
X153936822Y-81531392D01*
X154048392Y-81419822D01*
X154179584Y-81332163D01*
X154179586Y-81332162D01*
X154325358Y-81271781D01*
X154480107Y-81241000D01*
X154637893Y-81241000D01*
X154792642Y-81271781D01*
X154792642Y-81271781D01*
G37*
G36*
X152252642Y-81271781D02*
G01*
X152398414Y-81332162D01*
X152398416Y-81332163D01*
X152529608Y-81419822D01*
X152641178Y-81531392D01*
X152728837Y-81662584D01*
X152728838Y-81662586D01*
X152789219Y-81808358D01*
X152820000Y-81963107D01*
X152820000Y-82120893D01*
X152789219Y-82275642D01*
X152728838Y-82421414D01*
X152728837Y-82421416D01*
X152641178Y-82552608D01*
X152529608Y-82664178D01*
X152398416Y-82751837D01*
X152398415Y-82751838D01*
X152398414Y-82751838D01*
X152252642Y-82812219D01*
X152097893Y-82843000D01*
X151940107Y-82843000D01*
X151785358Y-82812219D01*
X151639586Y-82751838D01*
X151639585Y-82751838D01*
X151639584Y-82751837D01*
X151508392Y-82664178D01*
X151396822Y-82552608D01*
X151309163Y-82421416D01*
X151309162Y-82421414D01*
X151248781Y-82275642D01*
X151218000Y-82120893D01*
X151218000Y-81963107D01*
X151248781Y-81808358D01*
X151309162Y-81662586D01*
X151309163Y-81662584D01*
X151396822Y-81531392D01*
X151508392Y-81419822D01*
X151639584Y-81332163D01*
X151639586Y-81332162D01*
X151785358Y-81271781D01*
X151940107Y-81241000D01*
X152097893Y-81241000D01*
X152252642Y-81271781D01*
X152252642Y-81271781D01*
G37*
G36*
X149712642Y-81271781D02*
G01*
X149858414Y-81332162D01*
X149858416Y-81332163D01*
X149989608Y-81419822D01*
X150101178Y-81531392D01*
X150188837Y-81662584D01*
X150188838Y-81662586D01*
X150249219Y-81808358D01*
X150280000Y-81963107D01*
X150280000Y-82120893D01*
X150249219Y-82275642D01*
X150188838Y-82421414D01*
X150188837Y-82421416D01*
X150101178Y-82552608D01*
X149989608Y-82664178D01*
X149858416Y-82751837D01*
X149858415Y-82751838D01*
X149858414Y-82751838D01*
X149712642Y-82812219D01*
X149557893Y-82843000D01*
X149400107Y-82843000D01*
X149245358Y-82812219D01*
X149099586Y-82751838D01*
X149099585Y-82751838D01*
X149099584Y-82751837D01*
X148968392Y-82664178D01*
X148856822Y-82552608D01*
X148769163Y-82421416D01*
X148769162Y-82421414D01*
X148708781Y-82275642D01*
X148678000Y-82120893D01*
X148678000Y-81963107D01*
X148708781Y-81808358D01*
X148769162Y-81662586D01*
X148769163Y-81662584D01*
X148856822Y-81531392D01*
X148968392Y-81419822D01*
X149099584Y-81332163D01*
X149099586Y-81332162D01*
X149245358Y-81271781D01*
X149400107Y-81241000D01*
X149557893Y-81241000D01*
X149712642Y-81271781D01*
X149712642Y-81271781D01*
G37*
G36*
X24661395Y-78841546D02*
G01*
X24834466Y-78913234D01*
X24834467Y-78913235D01*
X24990227Y-79017310D01*
X25122690Y-79149773D01*
X25122691Y-79149775D01*
X25226766Y-79305534D01*
X25298454Y-79478605D01*
X25335000Y-79662333D01*
X25335000Y-79849667D01*
X25298454Y-80033395D01*
X25226766Y-80206466D01*
X25182832Y-80272218D01*
X25122690Y-80362227D01*
X24990227Y-80494690D01*
X24911818Y-80547081D01*
X24834466Y-80598766D01*
X24661395Y-80670454D01*
X24477667Y-80707000D01*
X24290333Y-80707000D01*
X24106605Y-80670454D01*
X23933534Y-80598766D01*
X23856182Y-80547081D01*
X23777773Y-80494690D01*
X23645310Y-80362227D01*
X23585168Y-80272218D01*
X23541234Y-80206466D01*
X23469546Y-80033395D01*
X23433000Y-79849667D01*
X23433000Y-79662333D01*
X23469546Y-79478605D01*
X23541234Y-79305534D01*
X23645309Y-79149775D01*
X23645310Y-79149773D01*
X23777773Y-79017310D01*
X23933533Y-78913235D01*
X23933534Y-78913234D01*
X24106605Y-78841546D01*
X24290333Y-78805000D01*
X24477667Y-78805000D01*
X24661395Y-78841546D01*
X24661395Y-78841546D01*
G37*
G36*
X75461395Y-78841546D02*
G01*
X75634466Y-78913234D01*
X75634467Y-78913235D01*
X75790227Y-79017310D01*
X75922690Y-79149773D01*
X75922691Y-79149775D01*
X76026766Y-79305534D01*
X76098454Y-79478605D01*
X76135000Y-79662333D01*
X76135000Y-79849667D01*
X76098454Y-80033395D01*
X76026766Y-80206466D01*
X75982832Y-80272218D01*
X75922690Y-80362227D01*
X75790227Y-80494690D01*
X75711818Y-80547081D01*
X75634466Y-80598766D01*
X75461395Y-80670454D01*
X75277667Y-80707000D01*
X75090333Y-80707000D01*
X74906605Y-80670454D01*
X74733534Y-80598766D01*
X74656182Y-80547081D01*
X74577773Y-80494690D01*
X74445310Y-80362227D01*
X74385168Y-80272218D01*
X74341234Y-80206466D01*
X74269546Y-80033395D01*
X74233000Y-79849667D01*
X74233000Y-79662333D01*
X74269546Y-79478605D01*
X74341234Y-79305534D01*
X74445309Y-79149775D01*
X74445310Y-79149773D01*
X74577773Y-79017310D01*
X74733533Y-78913235D01*
X74733534Y-78913234D01*
X74906605Y-78841546D01*
X75090333Y-78805000D01*
X75277667Y-78805000D01*
X75461395Y-78841546D01*
X75461395Y-78841546D01*
G37*
G36*
X126134395Y-78841546D02*
G01*
X126307466Y-78913234D01*
X126307467Y-78913235D01*
X126463227Y-79017310D01*
X126595690Y-79149773D01*
X126595691Y-79149775D01*
X126699766Y-79305534D01*
X126771454Y-79478605D01*
X126808000Y-79662333D01*
X126808000Y-79849667D01*
X126771454Y-80033395D01*
X126699766Y-80206466D01*
X126655832Y-80272218D01*
X126595690Y-80362227D01*
X126463227Y-80494690D01*
X126384818Y-80547081D01*
X126307466Y-80598766D01*
X126134395Y-80670454D01*
X125950667Y-80707000D01*
X125763333Y-80707000D01*
X125579605Y-80670454D01*
X125406534Y-80598766D01*
X125329182Y-80547081D01*
X125250773Y-80494690D01*
X125118310Y-80362227D01*
X125058168Y-80272218D01*
X125014234Y-80206466D01*
X124942546Y-80033395D01*
X124906000Y-79849667D01*
X124906000Y-79662333D01*
X124942546Y-79478605D01*
X125014234Y-79305534D01*
X125118309Y-79149775D01*
X125118310Y-79149773D01*
X125250773Y-79017310D01*
X125406533Y-78913235D01*
X125406534Y-78913234D01*
X125579605Y-78841546D01*
X125763333Y-78805000D01*
X125950667Y-78805000D01*
X126134395Y-78841546D01*
X126134395Y-78841546D01*
G37*
G36*
X177061395Y-78841546D02*
G01*
X177234466Y-78913234D01*
X177234467Y-78913235D01*
X177390227Y-79017310D01*
X177522690Y-79149773D01*
X177522691Y-79149775D01*
X177626766Y-79305534D01*
X177698454Y-79478605D01*
X177735000Y-79662333D01*
X177735000Y-79849667D01*
X177698454Y-80033395D01*
X177626766Y-80206466D01*
X177582832Y-80272218D01*
X177522690Y-80362227D01*
X177390227Y-80494690D01*
X177311818Y-80547081D01*
X177234466Y-80598766D01*
X177061395Y-80670454D01*
X176877667Y-80707000D01*
X176690333Y-80707000D01*
X176506605Y-80670454D01*
X176333534Y-80598766D01*
X176256182Y-80547081D01*
X176177773Y-80494690D01*
X176045310Y-80362227D01*
X175985168Y-80272218D01*
X175941234Y-80206466D01*
X175869546Y-80033395D01*
X175833000Y-79849667D01*
X175833000Y-79662333D01*
X175869546Y-79478605D01*
X175941234Y-79305534D01*
X176045309Y-79149775D01*
X176045310Y-79149773D01*
X176177773Y-79017310D01*
X176333533Y-78913235D01*
X176333534Y-78913234D01*
X176506605Y-78841546D01*
X176690333Y-78805000D01*
X176877667Y-78805000D01*
X177061395Y-78841546D01*
X177061395Y-78841546D01*
G37*
G36*
X227861395Y-78841546D02*
G01*
X228034466Y-78913234D01*
X228034467Y-78913235D01*
X228190227Y-79017310D01*
X228322690Y-79149773D01*
X228322691Y-79149775D01*
X228426766Y-79305534D01*
X228498454Y-79478605D01*
X228535000Y-79662333D01*
X228535000Y-79849667D01*
X228498454Y-80033395D01*
X228426766Y-80206466D01*
X228382832Y-80272218D01*
X228322690Y-80362227D01*
X228190227Y-80494690D01*
X228111818Y-80547081D01*
X228034466Y-80598766D01*
X227861395Y-80670454D01*
X227677667Y-80707000D01*
X227490333Y-80707000D01*
X227306605Y-80670454D01*
X227133534Y-80598766D01*
X227056182Y-80547081D01*
X226977773Y-80494690D01*
X226845310Y-80362227D01*
X226785168Y-80272218D01*
X226741234Y-80206466D01*
X226669546Y-80033395D01*
X226633000Y-79849667D01*
X226633000Y-79662333D01*
X226669546Y-79478605D01*
X226741234Y-79305534D01*
X226845309Y-79149775D01*
X226845310Y-79149773D01*
X226977773Y-79017310D01*
X227133533Y-78913235D01*
X227133534Y-78913234D01*
X227306605Y-78841546D01*
X227490333Y-78805000D01*
X227677667Y-78805000D01*
X227861395Y-78841546D01*
X227861395Y-78841546D01*
G37*
G36*
X278788395Y-78841546D02*
G01*
X278961466Y-78913234D01*
X278961467Y-78913235D01*
X279117227Y-79017310D01*
X279249690Y-79149773D01*
X279249691Y-79149775D01*
X279353766Y-79305534D01*
X279425454Y-79478605D01*
X279462000Y-79662333D01*
X279462000Y-79849667D01*
X279425454Y-80033395D01*
X279353766Y-80206466D01*
X279309832Y-80272218D01*
X279249690Y-80362227D01*
X279117227Y-80494690D01*
X279038818Y-80547081D01*
X278961466Y-80598766D01*
X278788395Y-80670454D01*
X278604667Y-80707000D01*
X278417333Y-80707000D01*
X278233605Y-80670454D01*
X278060534Y-80598766D01*
X277983182Y-80547081D01*
X277904773Y-80494690D01*
X277772310Y-80362227D01*
X277712168Y-80272218D01*
X277668234Y-80206466D01*
X277596546Y-80033395D01*
X277560000Y-79849667D01*
X277560000Y-79662333D01*
X277596546Y-79478605D01*
X277668234Y-79305534D01*
X277772309Y-79149775D01*
X277772310Y-79149773D01*
X277904773Y-79017310D01*
X278060533Y-78913235D01*
X278060534Y-78913234D01*
X278233605Y-78841546D01*
X278417333Y-78805000D01*
X278604667Y-78805000D01*
X278788395Y-78841546D01*
X278788395Y-78841546D01*
G37*
G36*
X156630000Y-80303000D02*
G01*
X155028000Y-80303000D01*
X155028000Y-78701000D01*
X156630000Y-78701000D01*
X156630000Y-80303000D01*
X156630000Y-80303000D01*
G37*
G36*
X153522642Y-78731781D02*
G01*
X153668414Y-78792162D01*
X153668416Y-78792163D01*
X153799608Y-78879822D01*
X153911178Y-78991392D01*
X153998837Y-79122584D01*
X153998838Y-79122586D01*
X154059219Y-79268358D01*
X154090000Y-79423107D01*
X154090000Y-79580893D01*
X154059219Y-79735642D01*
X154011989Y-79849665D01*
X153998837Y-79881416D01*
X153911178Y-80012608D01*
X153799608Y-80124178D01*
X153668416Y-80211837D01*
X153668415Y-80211838D01*
X153668414Y-80211838D01*
X153522642Y-80272219D01*
X153367893Y-80303000D01*
X153210107Y-80303000D01*
X153055358Y-80272219D01*
X152909586Y-80211838D01*
X152909585Y-80211838D01*
X152909584Y-80211837D01*
X152778392Y-80124178D01*
X152666822Y-80012608D01*
X152579163Y-79881416D01*
X152566011Y-79849665D01*
X152518781Y-79735642D01*
X152488000Y-79580893D01*
X152488000Y-79423107D01*
X152518781Y-79268358D01*
X152579162Y-79122586D01*
X152579163Y-79122584D01*
X152666822Y-78991392D01*
X152778392Y-78879822D01*
X152909584Y-78792163D01*
X152909586Y-78792162D01*
X153055358Y-78731781D01*
X153210107Y-78701000D01*
X153367893Y-78701000D01*
X153522642Y-78731781D01*
X153522642Y-78731781D01*
G37*
G36*
X150982642Y-78731781D02*
G01*
X151128414Y-78792162D01*
X151128416Y-78792163D01*
X151259608Y-78879822D01*
X151371178Y-78991392D01*
X151458837Y-79122584D01*
X151458838Y-79122586D01*
X151519219Y-79268358D01*
X151550000Y-79423107D01*
X151550000Y-79580893D01*
X151519219Y-79735642D01*
X151471989Y-79849665D01*
X151458837Y-79881416D01*
X151371178Y-80012608D01*
X151259608Y-80124178D01*
X151128416Y-80211837D01*
X151128415Y-80211838D01*
X151128414Y-80211838D01*
X150982642Y-80272219D01*
X150827893Y-80303000D01*
X150670107Y-80303000D01*
X150515358Y-80272219D01*
X150369586Y-80211838D01*
X150369585Y-80211838D01*
X150369584Y-80211837D01*
X150238392Y-80124178D01*
X150126822Y-80012608D01*
X150039163Y-79881416D01*
X150026011Y-79849665D01*
X149978781Y-79735642D01*
X149948000Y-79580893D01*
X149948000Y-79423107D01*
X149978781Y-79268358D01*
X150039162Y-79122586D01*
X150039163Y-79122584D01*
X150126822Y-78991392D01*
X150238392Y-78879822D01*
X150369584Y-78792163D01*
X150369586Y-78792162D01*
X150515358Y-78731781D01*
X150670107Y-78701000D01*
X150827893Y-78701000D01*
X150982642Y-78731781D01*
X150982642Y-78731781D01*
G37*
G36*
X148442642Y-78731781D02*
G01*
X148588414Y-78792162D01*
X148588416Y-78792163D01*
X148719608Y-78879822D01*
X148831178Y-78991392D01*
X148918837Y-79122584D01*
X148918838Y-79122586D01*
X148979219Y-79268358D01*
X149010000Y-79423107D01*
X149010000Y-79580893D01*
X148979219Y-79735642D01*
X148931989Y-79849665D01*
X148918837Y-79881416D01*
X148831178Y-80012608D01*
X148719608Y-80124178D01*
X148588416Y-80211837D01*
X148588415Y-80211838D01*
X148588414Y-80211838D01*
X148442642Y-80272219D01*
X148287893Y-80303000D01*
X148130107Y-80303000D01*
X147975358Y-80272219D01*
X147829586Y-80211838D01*
X147829585Y-80211838D01*
X147829584Y-80211837D01*
X147698392Y-80124178D01*
X147586822Y-80012608D01*
X147499163Y-79881416D01*
X147486011Y-79849665D01*
X147438781Y-79735642D01*
X147408000Y-79580893D01*
X147408000Y-79423107D01*
X147438781Y-79268358D01*
X147499162Y-79122586D01*
X147499163Y-79122584D01*
X147586822Y-78991392D01*
X147698392Y-78879822D01*
X147829584Y-78792163D01*
X147829586Y-78792162D01*
X147975358Y-78731781D01*
X148130107Y-78701000D01*
X148287893Y-78701000D01*
X148442642Y-78731781D01*
X148442642Y-78731781D01*
G37*
G36*
X183461665Y-76722622D02*
G01*
X183535222Y-76729867D01*
X183676786Y-76772810D01*
X183807252Y-76842546D01*
X183837040Y-76866992D01*
X183921607Y-76936393D01*
X183991008Y-77020960D01*
X184015454Y-77050748D01*
X184085190Y-77181214D01*
X184128133Y-77322778D01*
X184142633Y-77470000D01*
X184128133Y-77617222D01*
X184085190Y-77758786D01*
X184015454Y-77889252D01*
X183991008Y-77919040D01*
X183921607Y-78003607D01*
X183837040Y-78073008D01*
X183807252Y-78097454D01*
X183676786Y-78167190D01*
X183535222Y-78210133D01*
X183461665Y-78217378D01*
X183424888Y-78221000D01*
X183351112Y-78221000D01*
X183314335Y-78217378D01*
X183240778Y-78210133D01*
X183099214Y-78167190D01*
X182968748Y-78097454D01*
X182938960Y-78073008D01*
X182854393Y-78003607D01*
X182784992Y-77919040D01*
X182760546Y-77889252D01*
X182690810Y-77758786D01*
X182647867Y-77617222D01*
X182633367Y-77470000D01*
X182647867Y-77322778D01*
X182690810Y-77181214D01*
X182760546Y-77050748D01*
X182784992Y-77020960D01*
X182854393Y-76936393D01*
X182938960Y-76866992D01*
X182968748Y-76842546D01*
X183099214Y-76772810D01*
X183240778Y-76729867D01*
X183314335Y-76722622D01*
X183351112Y-76719000D01*
X183424888Y-76719000D01*
X183461665Y-76722622D01*
X183461665Y-76722622D01*
G37*
G36*
X133677665Y-76468622D02*
G01*
X133751222Y-76475867D01*
X133892786Y-76518810D01*
X134023252Y-76588546D01*
X134053040Y-76612992D01*
X134137607Y-76682393D01*
X134207008Y-76766960D01*
X134231454Y-76796748D01*
X134301190Y-76927214D01*
X134344133Y-77068778D01*
X134358633Y-77216000D01*
X134344133Y-77363222D01*
X134301190Y-77504786D01*
X134231454Y-77635252D01*
X134207008Y-77665040D01*
X134137607Y-77749607D01*
X134053040Y-77819008D01*
X134023252Y-77843454D01*
X133892786Y-77913190D01*
X133751222Y-77956133D01*
X133677665Y-77963378D01*
X133640888Y-77967000D01*
X133567112Y-77967000D01*
X133530335Y-77963378D01*
X133456778Y-77956133D01*
X133315214Y-77913190D01*
X133184748Y-77843454D01*
X133154960Y-77819008D01*
X133070393Y-77749607D01*
X133000992Y-77665040D01*
X132976546Y-77635252D01*
X132906810Y-77504786D01*
X132863867Y-77363222D01*
X132849367Y-77216000D01*
X132863867Y-77068778D01*
X132906810Y-76927214D01*
X132976546Y-76796748D01*
X133000992Y-76766960D01*
X133070393Y-76682393D01*
X133154960Y-76612992D01*
X133184748Y-76588546D01*
X133315214Y-76518810D01*
X133456778Y-76475867D01*
X133530335Y-76468622D01*
X133567112Y-76465000D01*
X133640888Y-76465000D01*
X133677665Y-76468622D01*
X133677665Y-76468622D01*
G37*
G36*
X84147665Y-76468622D02*
G01*
X84221222Y-76475867D01*
X84362786Y-76518810D01*
X84493252Y-76588546D01*
X84523040Y-76612992D01*
X84607607Y-76682393D01*
X84677008Y-76766960D01*
X84701454Y-76796748D01*
X84771190Y-76927214D01*
X84814133Y-77068778D01*
X84828633Y-77216000D01*
X84814133Y-77363222D01*
X84771190Y-77504786D01*
X84701454Y-77635252D01*
X84677008Y-77665040D01*
X84607607Y-77749607D01*
X84523040Y-77819008D01*
X84493252Y-77843454D01*
X84362786Y-77913190D01*
X84221222Y-77956133D01*
X84147665Y-77963378D01*
X84110888Y-77967000D01*
X84037112Y-77967000D01*
X84000335Y-77963378D01*
X83926778Y-77956133D01*
X83785214Y-77913190D01*
X83654748Y-77843454D01*
X83624960Y-77819008D01*
X83540393Y-77749607D01*
X83470992Y-77665040D01*
X83446546Y-77635252D01*
X83376810Y-77504786D01*
X83333867Y-77363222D01*
X83319367Y-77216000D01*
X83333867Y-77068778D01*
X83376810Y-76927214D01*
X83446546Y-76796748D01*
X83470992Y-76766960D01*
X83540393Y-76682393D01*
X83624960Y-76612992D01*
X83654748Y-76588546D01*
X83785214Y-76518810D01*
X83926778Y-76475867D01*
X84000335Y-76468622D01*
X84037112Y-76465000D01*
X84110888Y-76465000D01*
X84147665Y-76468622D01*
X84147665Y-76468622D01*
G37*
G36*
X236293665Y-76468622D02*
G01*
X236367222Y-76475867D01*
X236508786Y-76518810D01*
X236639252Y-76588546D01*
X236669040Y-76612992D01*
X236753607Y-76682393D01*
X236823008Y-76766960D01*
X236847454Y-76796748D01*
X236917190Y-76927214D01*
X236960133Y-77068778D01*
X236974633Y-77216000D01*
X236960133Y-77363222D01*
X236917190Y-77504786D01*
X236847454Y-77635252D01*
X236823008Y-77665040D01*
X236753607Y-77749607D01*
X236669040Y-77819008D01*
X236639252Y-77843454D01*
X236508786Y-77913190D01*
X236367222Y-77956133D01*
X236293665Y-77963378D01*
X236256888Y-77967000D01*
X236183112Y-77967000D01*
X236146335Y-77963378D01*
X236072778Y-77956133D01*
X235931214Y-77913190D01*
X235800748Y-77843454D01*
X235770960Y-77819008D01*
X235686393Y-77749607D01*
X235616992Y-77665040D01*
X235592546Y-77635252D01*
X235522810Y-77504786D01*
X235479867Y-77363222D01*
X235465367Y-77216000D01*
X235479867Y-77068778D01*
X235522810Y-76927214D01*
X235592546Y-76796748D01*
X235616992Y-76766960D01*
X235686393Y-76682393D01*
X235770960Y-76612992D01*
X235800748Y-76588546D01*
X235931214Y-76518810D01*
X236072778Y-76475867D01*
X236146335Y-76468622D01*
X236183112Y-76465000D01*
X236256888Y-76465000D01*
X236293665Y-76468622D01*
X236293665Y-76468622D01*
G37*
G36*
X34617665Y-76468622D02*
G01*
X34691222Y-76475867D01*
X34832786Y-76518810D01*
X34963252Y-76588546D01*
X34993040Y-76612992D01*
X35077607Y-76682393D01*
X35147008Y-76766960D01*
X35171454Y-76796748D01*
X35241190Y-76927214D01*
X35284133Y-77068778D01*
X35298633Y-77216000D01*
X35284133Y-77363222D01*
X35241190Y-77504786D01*
X35171454Y-77635252D01*
X35147008Y-77665040D01*
X35077607Y-77749607D01*
X34993040Y-77819008D01*
X34963252Y-77843454D01*
X34832786Y-77913190D01*
X34691222Y-77956133D01*
X34617665Y-77963378D01*
X34580888Y-77967000D01*
X34507112Y-77967000D01*
X34470335Y-77963378D01*
X34396778Y-77956133D01*
X34255214Y-77913190D01*
X34124748Y-77843454D01*
X34094960Y-77819008D01*
X34010393Y-77749607D01*
X33940992Y-77665040D01*
X33916546Y-77635252D01*
X33846810Y-77504786D01*
X33803867Y-77363222D01*
X33789367Y-77216000D01*
X33803867Y-77068778D01*
X33846810Y-76927214D01*
X33916546Y-76796748D01*
X33940992Y-76766960D01*
X34010393Y-76682393D01*
X34094960Y-76612992D01*
X34124748Y-76588546D01*
X34255214Y-76518810D01*
X34396778Y-76475867D01*
X34470335Y-76468622D01*
X34507112Y-76465000D01*
X34580888Y-76465000D01*
X34617665Y-76468622D01*
X34617665Y-76468622D01*
G37*
G36*
X286966665Y-76468622D02*
G01*
X287040222Y-76475867D01*
X287181786Y-76518810D01*
X287312252Y-76588546D01*
X287342040Y-76612992D01*
X287426607Y-76682393D01*
X287496008Y-76766960D01*
X287520454Y-76796748D01*
X287590190Y-76927214D01*
X287633133Y-77068778D01*
X287647633Y-77216000D01*
X287633133Y-77363222D01*
X287590190Y-77504786D01*
X287520454Y-77635252D01*
X287496008Y-77665040D01*
X287426607Y-77749607D01*
X287342040Y-77819008D01*
X287312252Y-77843454D01*
X287181786Y-77913190D01*
X287040222Y-77956133D01*
X286966665Y-77963378D01*
X286929888Y-77967000D01*
X286856112Y-77967000D01*
X286819335Y-77963378D01*
X286745778Y-77956133D01*
X286604214Y-77913190D01*
X286473748Y-77843454D01*
X286443960Y-77819008D01*
X286359393Y-77749607D01*
X286289992Y-77665040D01*
X286265546Y-77635252D01*
X286195810Y-77504786D01*
X286152867Y-77363222D01*
X286138367Y-77216000D01*
X286152867Y-77068778D01*
X286195810Y-76927214D01*
X286265546Y-76796748D01*
X286289992Y-76766960D01*
X286359393Y-76682393D01*
X286443960Y-76612992D01*
X286473748Y-76588546D01*
X286604214Y-76518810D01*
X286745778Y-76475867D01*
X286819335Y-76468622D01*
X286856112Y-76465000D01*
X286929888Y-76465000D01*
X286966665Y-76468622D01*
X286966665Y-76468622D01*
G37*
G36*
X157474256Y-71543298D02*
G01*
X157580579Y-71564447D01*
X157881042Y-71688903D01*
X158151451Y-71869585D01*
X158381415Y-72099549D01*
X158562097Y-72369958D01*
X158686553Y-72670421D01*
X158750000Y-72989391D01*
X158750000Y-73314609D01*
X158686553Y-73633579D01*
X158562097Y-73934042D01*
X158381415Y-74204451D01*
X158151451Y-74434415D01*
X157881042Y-74615097D01*
X157580579Y-74739553D01*
X157474256Y-74760702D01*
X157261611Y-74803000D01*
X156936389Y-74803000D01*
X156723744Y-74760702D01*
X156617421Y-74739553D01*
X156316958Y-74615097D01*
X156046549Y-74434415D01*
X155816585Y-74204451D01*
X155635903Y-73934042D01*
X155511447Y-73633579D01*
X155448000Y-73314609D01*
X155448000Y-72989391D01*
X155511447Y-72670421D01*
X155635903Y-72369958D01*
X155816585Y-72099549D01*
X156046549Y-71869585D01*
X156316958Y-71688903D01*
X156617421Y-71564447D01*
X156723744Y-71543298D01*
X156936389Y-71501000D01*
X157261611Y-71501000D01*
X157474256Y-71543298D01*
X157474256Y-71543298D01*
G37*
G36*
X146044256Y-71543298D02*
G01*
X146150579Y-71564447D01*
X146451042Y-71688903D01*
X146721451Y-71869585D01*
X146951415Y-72099549D01*
X147132097Y-72369958D01*
X147256553Y-72670421D01*
X147320000Y-72989391D01*
X147320000Y-73314609D01*
X147256553Y-73633579D01*
X147132097Y-73934042D01*
X146951415Y-74204451D01*
X146721451Y-74434415D01*
X146451042Y-74615097D01*
X146150579Y-74739553D01*
X146044256Y-74760702D01*
X145831611Y-74803000D01*
X145506389Y-74803000D01*
X145293744Y-74760702D01*
X145187421Y-74739553D01*
X144886958Y-74615097D01*
X144616549Y-74434415D01*
X144386585Y-74204451D01*
X144205903Y-73934042D01*
X144081447Y-73633579D01*
X144018000Y-73314609D01*
X144018000Y-72989391D01*
X144081447Y-72670421D01*
X144205903Y-72369958D01*
X144386585Y-72099549D01*
X144616549Y-71869585D01*
X144886958Y-71688903D01*
X145187421Y-71564447D01*
X145293744Y-71543298D01*
X145506389Y-71501000D01*
X145831611Y-71501000D01*
X146044256Y-71543298D01*
X146044256Y-71543298D01*
G37*
M02*
